<?xml version="1.0" standalone="no"?>
<!DOCTYPE svg PUBLIC "-//W3C//DTD SVG 1.1//EN" "http://www.w3.org/Graphics/SVG/1.1/DTD/svg11.dtd" >
<svg xmlns="http://www.w3.org/2000/svg" xmlns:xlink="http://www.w3.org/1999/xlink" version="1.1">
<metadata>
Created by FontForge 20170731 at Thu Apr  7 00:02:38 2022
 By Aleksey,,,
</metadata>
<defs>
<font id="RanyMediumItalic" horiz-adv-x="1366" >
  <font-face 
    font-family="Rany Medium Italic"
    font-weight="400"
    font-style="italic"
    font-stretch="normal"
    units-per-em="2048"
    panose-1="0 0 0 0 0 0 0 0 0 0"
    ascent="1638"
    descent="-410"
    x-height="1036"
    cap-height="1434"
    bbox="-339 -412 2133 1711"
    underline-thickness="102"
    underline-position="-307"
    unicode-range="U+000A-2122"
  />
<missing-glyph horiz-adv-x="1079" 
d="M102 1434h875v-1434h-875v1434zM160 1393l379 -633l381 633h-760zM514 717l-369 614v-1231zM541 674l-379 -631h758zM565 717l371 -621v1239z" />
    <glyph glyph-name=".notdef" horiz-adv-x="1079" 
d="M102 1434h875v-1434h-875v1434zM160 1393l379 -633l381 633h-760zM514 717l-369 614v-1231zM541 674l-379 -631h758zM565 717l371 -621v1239z" />
    <glyph glyph-name=".null" horiz-adv-x="0" 
 />
    <glyph glyph-name=".null" horiz-adv-x="0" 
 />
    <glyph glyph-name="nonmarkingreturn" horiz-adv-x="682" 
 />
    <glyph glyph-name="controlLF" unicode="&#xa;" horiz-adv-x="0" 
 />
    <glyph glyph-name="controlCR" unicode="&#xd;" horiz-adv-x="0" 
 />
    <glyph glyph-name="space" unicode=" " horiz-adv-x="491" 
 />
    <glyph glyph-name="exclam" unicode="!" horiz-adv-x="512" 
d="M247 36q-50 -46 -113 -48.5t-101 39.5t-30 104.5t58 108.5t113.5 48.5t101.5 -39.5t29.5 -104.5t-58.5 -108.5zM266 1439h236l-188 -988h-208z" />
    <glyph glyph-name="numbersign" unicode="#" horiz-adv-x="1560" 
d="M1469 853h-263l-116 -262h262l-90 -202h-262l-170 -384h-223l170 384h-288l-170 -384h-223l171 384h-263l90 202h263l116 262h-262l89 202h263l170 384h223l-171 -384h289l170 384h222l-170 -384h263zM867 591l117 262h-288l-117 -262h288z" />
    <glyph glyph-name="dollar" unicode="$" horiz-adv-x="1230" 
d="M751 833q45 -17 80.5 -33t82 -43t79 -60t60 -76t37.5 -99.5t0 -122.5q-26 -171 -177 -287q-132 -101 -311 -123l-26 -147h-184l26 148q-171 25 -279.5 130.5t-124.5 263.5l225 49q10 -98 69.5 -157t146.5 -80l85 485q-14 6 -22 9q-146 57 -216 119q-135 117 -91 291
q26 103 100 182.5t168 121.5t198 53l26 144h183l-27 -151q127 -23 208.5 -96.5t109.5 -190.5l-221 -71q-27 113 -134 149zM579 901l62 351q-177 -32 -211 -166q-15 -61 22 -103t127 -82zM867 394q11 78 -29.5 128.5t-125.5 90.5l-74 -419q85 17 145 63q72 55 84 137z" />
    <glyph glyph-name="percent" unicode="%" horiz-adv-x="1605" 
d="M1247 1439h256l-1145 -1434h-256zM398 819q-133 0 -210 92.5t-54 223.5t133 223.5t243 92.5t210 -92.5t54 -223.5t-133 -223.5t-243 -92.5zM313 1135q-10 -58 23.5 -98.5t92.5 -40.5q58 0 106.5 40.5t59.5 98.5t-23.5 99t-92.5 41t-106.5 -41t-59.5 -99zM1207 625
q133 0 210.5 -92.5t54.5 -223.5t-133.5 -224t-242.5 -93q-133 0 -210.5 93t-54.5 224t133 223.5t243 92.5zM1292 309q10 58 -23.5 98.5t-92.5 40.5q-58 0 -106.5 -40.5t-59.5 -98.5q-10 -58 24 -99t93 -41q58 0 106 41t59 99z" />
    <glyph glyph-name="ampersand" unicode="&#x26;" horiz-adv-x="1503" 
d="M1076 370q69 -88 171 -219t114 -146h-287q-24 30 -80 102t-87 111q-113 -98 -209 -154q-182 -106 -350.5 -99t-269.5 124q-91 106 -68.5 248t150.5 269q105 104 259 220q-99 126 -112 232q-8 71 18 145t81 132q103 111 253 125q164 16 256 -70q43 -40 62 -95t10 -116
q-15 -101 -78 -182t-188 -179q18 -21 54 -65q34 -42 183 -233q85 78 234 217l119 -151q-44 -42 -235 -216zM565 1223q-46 -49 -39 -114q7 -60 73 -146q89 71 126 116.5t44 94.5q6 39 -23 67q-26 24 -75 24q-15 0 -23 -1q-50 -5 -83 -41zM600 225q75 44 189 143
q-47 60 -115.5 147.5t-84.5 107.5q-13 16 -49 59q-133 -100 -229 -195q-38 -38 -61 -80t-23.5 -92t33.5 -90q36 -42 85 -56t99.5 -3t86.5 25.5t69 33.5z" />
    <glyph glyph-name="parenleft" unicode="(" horiz-adv-x="618" 
d="M714 1711l121 -118q-109 -97 -187 -194q-87 -104 -151 -214q-135 -230 -175 -463q-44 -237 10 -464q25 -109 76 -214q44 -94 119 -194l-161 -117q-82 89 -150 212q-60 112 -96 242q-68 251 -20 535q51 283 208 535q82 131 181 242q105 116 225 212z" />
    <glyph glyph-name="parenright" unicode=")" horiz-adv-x="616" 
d="M500 1257q68 -251 20 -535q-54 -287 -209 -535q-83 -131 -182 -242q-112 -124 -224 -212l-119 117q109 97 187 194q87 104 151 214q132 225 173 464q43 234 -11 463q-26 113 -75 214q-42 91 -119 193l162 119q82 -89 150 -212q61 -113 96 -242z" />
    <glyph glyph-name="asterisk" unicode="*" horiz-adv-x="843" 
d="M862 1108l-254 -68l121 -196l-163 -104l-104 207l-176 -207l-127 104l191 196l-231 68l85 168l221 -86l34 249h180l-54 -249l252 86z" />
    <glyph glyph-name="plus" unicode="+" horiz-adv-x="1058" 
d="M1000 703l-36 -202h-371l-66 -372h-202l65 372h-372l36 202h372l66 372h202l-66 -372h372z" />
    <glyph glyph-name="comma" unicode="," horiz-adv-x="382" 
d="M18 255h239l-299 -602h-162z" />
    <glyph glyph-name="hyphen" unicode="-" horiz-adv-x="946" 
d="M47 694h845l-36 -203h-845z" />
    <glyph glyph-name="period" unicode="." horiz-adv-x="403" 
d="M126 289q62 0 98.5 -44.5t25.5 -106.5t-63 -106t-114 -44t-98.5 44t-25.5 106t63 106.5t114 44.5z" />
    <glyph glyph-name="slash" unicode="/" horiz-adv-x="931" 
d="M802 1439h241l-905 -1434h-240z" />
    <glyph glyph-name="zero" unicode="0" horiz-adv-x="1234" 
d="M1141 723q-25 -139 -68 -253.5t-92 -188.5t-109 -130t-112 -85.5t-109 -47t-92.5 -22t-68.5 -4.5q-25 0 -50.5 2.5t-62.5 12t-70.5 24.5t-70.5 43t-65.5 65t-52 93.5t-34.5 125t-8.5 162.5t21.5 203q25 139 68 253.5t92 188.5t109 130t112 85.5t109 47t92.5 22t68.5 4.5
q24 0 49.5 -2.5t63 -12t71 -24.5t70 -43t65.5 -65t52.5 -93.5t34.5 -125t8.5 -162.5t-21.5 -203zM905 723q6 33 10 67t6.5 87.5t-1 100t-16.5 96t-35.5 85t-63.5 58t-95 22.5t-103 -22.5t-84 -58t-66 -85t-50.5 -96t-36 -99.5t-24 -88t-13.5 -67q-6 -33 -10 -67t-6.5 -87.5
t1 -100t16.5 -96t35.5 -85t63.5 -58t95 -22.5t103 22.5t84 58t66 85t50.5 96t36 99.5t24 88t13.5 67z" />
    <glyph glyph-name="one" unicode="1" horiz-adv-x="694" 
d="M149 1247l556 234l-260 -1475h-236l199 1128l-301 -127z" />
    <glyph glyph-name="two" unicode="2" horiz-adv-x="1116" 
d="M306 221h635l-38 -215h-946l38 214l743 670q51 46 68 78q17 29 23 66q15 84 -40 143.5t-147 59.5t-167.5 -59.5t-90.5 -143.5h-237q20 113 98.5 209.5t194.5 152.5t240 56t220.5 -56t141 -152.5t24.5 -209.5q-11 -67 -49 -136q-40 -73 -123 -147z" />
    <glyph glyph-name="three" unicode="3" horiz-adv-x="1173" 
d="M980 734h1q87 -124 59 -284q-22 -124 -109 -229.5t-215 -167t-266 -61.5t-244 61.5t-155.5 167t-27.5 229.5h236q-18 -100 49 -171.5t180 -71.5q112 0 204.5 71t110.5 172t-49.5 172.5t-179.5 71.5q-48 0 -104 -18l-4 -1l-105 166l434 384h-559l38 215h867l-38 -219
q-248 -210 -406 -343q159 -7 254 -108l6 -6l1 -2l3 -3q10 -11 19 -25z" />
    <glyph glyph-name="four" unicode="4" horiz-adv-x="1206" 
d="M1121 551l-38 -215h-221l-58 -330h-236l58 330h-630l38 215l687 888h269l-687 -888h361l66 372h236l-66 -372h221z" />
    <glyph glyph-name="five" unicode="5" horiz-adv-x="1193" 
d="M1063 458q-22 -126 -109.5 -233.5t-216.5 -170t-268 -62.5t-246.5 62.5t-157 170t-27.5 233.5h236q-18 -104 50 -177.5t182 -73.5t208.5 74t112.5 177q10 54 -6 103.5t-55 85.5q-66 62 -222 62h-400l244 731h770l-38 -215h-565l-100 -301h127q127 0 215.5 -27.5
t152.5 -87.5q72 -67 101.5 -158.5t11.5 -192.5z" />
    <glyph glyph-name="six" unicode="6" horiz-adv-x="1165" 
d="M1052 585q26 -184 -106 -354q-131 -168 -345 -221q-73 -18 -145 -18q-131 0 -238 59q-82 45 -132 117t-63 161q-26 184 106 354l595 756h270l-9 -11l-447 -535q11 3 29.5 6.5t73.5 5t105.5 -7t113.5 -40.5t109 -85q68 -82 83 -187zM758 335q71 90 57 190q-14 98 -106 150
q-58 32 -128 32q-41 0 -78 -10q-113 -28 -185 -118q-71 -90 -57 -190q14 -99 105 -150t206 -23q114 28 186 119z" />
    <glyph glyph-name="seven" unicode="7" horiz-adv-x="1040" 
d="M106 6l711 1219h-694l38 215h946l-37 -214l-711 -1220h-253z" />
    <glyph glyph-name="eight" unicode="8" horiz-adv-x="1183" 
d="M1035 612q28 -84 13 -172q-14 -90 -69 -175q-54 -82 -138 -146q-82 -61 -181 -95q-98 -32 -195 -32q-97 1 -184 34t-147 93q-62 60 -87.5 145.5t-7.5 175.5q16 89 74 173q15 23 41 52q49 52 108 87t93 44l34 9q-4 2 -11.5 5.5t-28 17t-38 28.5t-36 41t-28.5 54
q-4 9 -5 16q0 1 -1 4t-1 4q-11 53 -2 107q11 74 58 145.5t116 121.5q140 103 311 105q77 0 152 -27q73 -28 123 -78q52 -51 73.5 -122t5.5 -145q-10 -51 -40 -105v1q-28 -53 -81 -96.5t-92 -59.5l-38 -17q5 -1 13 -3t31.5 -12t45 -24t48.5 -40t46 -58q13 -23 25 -56z
M685 1238q-77 3 -146.5 -44t-82.5 -112q-16 -69 34 -120t137 -53q43 0 82 13q35 12 74 40q67 51 75 120q9 68 -43 112t-130 44zM712 273q98 67 118 166q20 100 -50 174q-36 36 -84 55q-52 19 -108 19q-119 -2 -217 -74q-97 -72 -112 -174q-15 -97 59 -166q71 -68 185 -66
q113 0 209 66z" />
    <glyph glyph-name="nine" unicode="9" horiz-adv-x="1165" 
d="M117 861q-26 185 106 353q132 169 346 222q73 18 144 18q131 0 238 -59q81 -45 131.5 -117t63.5 -162q26 -183 -106 -353v-1l-594 -756h-271l9 12l447 534q-11 -3 -29.5 -6.5t-73.5 -5t-105.5 7.5t-113.5 41t-109 85q-68 82 -83 187zM411 1110q-70 -89 -56 -190
q14 -99 105 -150q58 -32 129 -32q40 0 77 10q114 28 186 119q71 90 57 189q-14 100 -106 151q-90 50 -206 22q-114 -28 -186 -119z" />
    <glyph glyph-name="colon" unicode=":" horiz-adv-x="460" 
d="M221 36q-50 -46 -113 -48.5t-101 39.5t-30 104.5t58 108.5t113 48.5t101 -39.5t30 -104.5t-58 -108.5zM277 982q62 0 98.5 -44.5t25.5 -106.5t-63.5 -106t-114.5 -44t-98.5 44t-25.5 106t63.5 106.5t114.5 44.5z" />
    <glyph glyph-name="semicolon" unicode=";" horiz-adv-x="466" 
d="M286 982q62 0 98.5 -44.5t25.5 -106.5t-63 -106t-114 -44t-98.5 44t-25.5 106t63 106.5t114 44.5zM-173 -347l222 602h238l-299 -602h-161z" />
    <glyph glyph-name="less" unicode="&#x3c;" horiz-adv-x="1286" 
d="M1315 1349l-40 -230l-929 -417l781 -418l-40 -230l-1054 564l29 168z" />
    <glyph glyph-name="equal" unicode="=" horiz-adv-x="1085" 
d="M119 943h927l-36 -202h-926zM12 336l36 203h927l-36 -203h-927z" />
    <glyph glyph-name="greater" unicode="&#x3e;" horiz-adv-x="1286" 
d="M194 1349l1054 -563l-29 -168l-1253 -564l40 230l929 418l-782 417z" />
    <glyph glyph-name="question" unicode="?" horiz-adv-x="968" 
d="M390 289q62 0 98.5 -44.5t25.5 -106.5t-63 -106t-114 -44t-98.5 44t-25.5 106t63 106.5t114 44.5zM596 1455q173 0 278 -91.5t99 -237.5q-2 -52 -19.5 -102t-38.5 -84.5t-57.5 -73.5t-58 -57.5t-58.5 -49.5q-19 -15 -25 -20t-18.5 -15t-18.5 -15q-78 -61 -107 -106
q-19 -29 -28 -60t-22 -105l-3 -16h-222l3 16q11 62 17.5 91.5t23.5 73t42 82.5q51 77 161 164l33 27q17 13 28 23q75 61 107.5 103.5t35.5 99.5q3 69 -48 110t-140 41q-174 0 -250 -170l-207 49q69 154 198 238.5t295 84.5z" />
    <glyph glyph-name="at" unicode="@" horiz-adv-x="1765" 
d="M1657 834q50 -165 -21 -338q-36 -89 -93 -162q-69 -85 -154 -136q-109 -67 -220 -67q-72 2 -123 41q-20 18 -24 22q-12 16 -17 25l-12 27q0 1 -1 4q-56 -51 -113 -82q-77 -41 -158 -51q-94 -12 -167 20q-75 30 -117 102q-34 58 -34 140q0 70 27 141q50 138 173 244
q59 50 136 87q84 39 162 44q93 7 162 -29q45 -23 78 -65l27 74h198l-114 -302l-54 -144q-1 -2 -3 -7.5t-3 -8.5l-4 -15q-4 -11 -8 -27q-2 -8 -2 -13l-1 -11q-1 -3 0 -10.5t1 -8.5q5 -16 8 -17q7 -5 19 -6q44 0 94 32q105 63 158 194q49 120 15 234q-33 110 -137 190
q-9 8 -28.5 20t-23.5 15q-10 6 -30 15t-27 13q-8 3 -29 11t-33 11l-32 8q-22 6 -33 7q-134 23 -279 -11q-141 -32 -269.5 -116.5t-214.5 -199.5q-86 -114 -114.5 -246t8.5 -247q40 -117 139 -193q93 -73 239 -94q134 -20 280.5 19t271.5 126l93 -118q-155 -109 -340.5 -159
t-358.5 -26q-186 25 -313 123q-133 102 -185 254q-50 153 -14 321.5t146 314.5q109 147 270 253.5t342 148.5q180 45 361.5 15t308.5 -129q142 -109 187 -257zM1039 515q18 46 13 91q-4 43 -30 73q-22 26 -59 36q-29 8 -73 3q-84 -11 -162 -77q-81 -65 -113 -151
q-16 -44 -14 -82q2 -39 18 -66q34 -52 112 -51q91 4 177 64q96 65 131 160z" />
    <glyph glyph-name="A" unicode="A" horiz-adv-x="1466" 
d="M1024 1434l314 -1434h-251l-76 346h-682l-199 -346h-251l820 1434h325zM451 561h513l-142 648z" />
    <glyph glyph-name="A" unicode="&#xc5;" horiz-adv-x="1466" 
d="M1024 1434l314 -1434h-251l-76 346h-682l-199 -346h-251l820 1434h325zM451 561h513l-142 648z" />
    <glyph glyph-name="A" unicode="&#xc4;" horiz-adv-x="1466" 
d="M1024 1434l314 -1434h-251l-76 346h-682l-199 -346h-251l820 1434h325zM451 561h513l-142 648z" />
    <glyph glyph-name="A" unicode="&#xc3;" horiz-adv-x="1466" 
d="M1024 1434l314 -1434h-251l-76 346h-682l-199 -346h-251l820 1434h325zM451 561h513l-142 648z" />
    <glyph glyph-name="A" unicode="&#xc2;" horiz-adv-x="1466" 
d="M1024 1434l314 -1434h-251l-76 346h-682l-199 -346h-251l820 1434h325zM451 561h513l-142 648z" />
    <glyph glyph-name="A" unicode="&#xc1;" horiz-adv-x="1466" 
d="M1024 1434l314 -1434h-251l-76 346h-682l-199 -346h-251l820 1434h325zM451 561h513l-142 648z" />
    <glyph glyph-name="A" unicode="&#xc0;" horiz-adv-x="1466" 
d="M1024 1434l314 -1434h-251l-76 346h-682l-199 -346h-251l820 1434h325zM451 561h513l-142 648z" />
    <glyph glyph-name="B" unicode="B" horiz-adv-x="1339" 
d="M1231 966q-17 -42 -47 -78.5t-61.5 -58.5t-60.5 -38t-48 -23l-18 -6q4 -1 11.5 -2t29 -7.5t41.5 -15t45.5 -25t45.5 -37.5t37 -52.5t24 -69.5q10 -64 -1 -122q-17 -96 -74 -178q-60 -85 -147 -140q-88 -56 -194 -85q-102 -28 -226 -28h-592l114 646l38 215l101 572h559
q111 0 195 -25q90 -27 150 -78q63 -53 89 -128q25 -74 10 -162q-5 -31 -21 -74zM992 431q9 49 -4 85q-13 37 -46 64q-36 32 -93 48q-61 18 -147 18h-356l-76 -431h356q83 0 154 19q68 19 110 47q42 27 67 64q26 35 35 86zM1016 1040q7 37 -4 70q-10 31 -37 53q-29 25 -78 40
q-51 16 -127 16h-323l-63 -358h323q75 0 132 16q55 15 93 40q34 22 55 52q22 33 29 71z" />
    <glyph glyph-name="C" unicode="C" horiz-adv-x="1458" 
d="M393 352q91 -99 231.5 -134t293 0t278.5 134l140 -152q-134 -105 -291.5 -159.5t-314.5 -54.5t-295.5 54.5t-235.5 159.5q-129 140 -151 328.5t66 377t267 328.5t395 190t414.5 0t327.5 -190l-194 -152q-91 99 -231.5 134t-293 0t-278.5 -134t-188 -232t-46.5 -266
t106.5 -232z" />
    <glyph glyph-name="C" unicode="&#xc7;" horiz-adv-x="1458" 
d="M393 352q91 -99 231.5 -134t293 0t278.5 134l140 -152q-134 -105 -291.5 -159.5t-314.5 -54.5t-295.5 54.5t-235.5 159.5q-129 140 -151 328.5t66 377t267 328.5t395 190t414.5 0t327.5 -190l-194 -152q-91 99 -231.5 134t-293 0t-278.5 -134t-188 -232t-46.5 -266
t106.5 -232z" />
    <glyph glyph-name="D" unicode="D" horiz-adv-x="1505" 
d="M1443 1001q31 -133 4 -284q-27 -152 -105 -286t-200 -230q-119 -95 -277 -149q-156 -52 -329 -52h-540l253 1433h540q176 0 311 -51q135 -52 224 -150q87 -96 119 -231zM1210 717q20 117 -2 209q-21 90 -79 156q-59 65 -151 100q-97 37 -227 37h-304l-177 -1004h304
q129 0 240 37q103 35 187 100q80 64 133 154q54 91 76 211z" />
    <glyph glyph-name="E" unicode="E" horiz-adv-x="1169" 
d="M1183 1219h-736l-68 -388h679l-37 -215h-680l-71 -401h736l-38 -215h-736h-236l38 215l71 401l37 215l69 388l38 215h972z" />
    <glyph glyph-name="E" unicode="&#xcb;" horiz-adv-x="1169" 
d="M1183 1219h-736l-68 -388h679l-37 -215h-680l-71 -401h736l-38 -215h-736h-236l38 215l71 401l37 215l69 388l38 215h972z" />
    <glyph glyph-name="E" unicode="&#xca;" horiz-adv-x="1169" 
d="M1183 1219h-736l-68 -388h679l-37 -215h-680l-71 -401h736l-38 -215h-736h-236l38 215l71 401l37 215l69 388l38 215h972z" />
    <glyph glyph-name="E" unicode="&#xc9;" horiz-adv-x="1169" 
d="M1183 1219h-736l-68 -388h679l-37 -215h-680l-71 -401h736l-38 -215h-736h-236l38 215l71 401l37 215l69 388l38 215h972z" />
    <glyph glyph-name="E" unicode="&#xc8;" horiz-adv-x="1169" 
d="M1183 1219h-736l-68 -388h679l-37 -215h-680l-71 -401h736l-38 -215h-736h-236l38 215l71 401l37 215l69 388l38 215h972z" />
    <glyph glyph-name="F" unicode="F" horiz-adv-x="1136" 
d="M1183 1219h-736l-68 -388h679l-37 -215h-680l-109 -616h-236l109 616l37 215l69 388l38 215h972z" />
    <glyph glyph-name="G" unicode="G" horiz-adv-x="1671" 
d="M1402 824v1h240q-2 -65 -10 -108q-35 -198 -170.5 -366.5t-334.5 -266.5t-413 -98t-378 98t-240 266.5t-41 366.5q26 148 112.5 283.5t209 233.5t279 156t316.5 58q162 0 297.5 -58.5t226.5 -161.5l-194 -152q-63 74 -158.5 115.5t-209.5 41.5q-150 0 -289 -69t-234 -188
t-120 -259t28.5 -259t168 -188t264.5 -69q197 0 369 116t243 292h-531l274 215h295z" />
    <glyph glyph-name="H" unicode="H" horiz-adv-x="1398" 
d="M1165 1434h236l-253 -1434h-236l109 616h-680l-109 -616h-236l253 1434h236l-106 -603h679z" />
    <glyph glyph-name="I" unicode="I" horiz-adv-x="481" 
d="M249 1434h236l-253 -1434h-236z" />
    <glyph glyph-name="I" unicode="&#xcf;" horiz-adv-x="481" 
d="M249 1434h236l-253 -1434h-236z" />
    <glyph glyph-name="I" unicode="&#xce;" horiz-adv-x="481" 
d="M249 1434h236l-253 -1434h-236z" />
    <glyph glyph-name="I" unicode="&#xcd;" horiz-adv-x="481" 
d="M249 1434h236l-253 -1434h-236z" />
    <glyph glyph-name="I" unicode="&#xcc;" horiz-adv-x="481" 
d="M249 1434h236l-253 -1434h-236z" />
    <glyph glyph-name="J" unicode="J" horiz-adv-x="1167" 
d="M950 1434l236 -1l-163 -927q-44 -247 -209 -388q-173 -147 -411 -147q-187 0 -311 103q-121 101 -145 285l237 58q15 -117 85 -175q66 -56 172 -56q135 0 223 76q95 81 123 244z" />
    <glyph glyph-name="K" unicode="K" horiz-adv-x="1431" 
d="M1482 1434l-837 -678l668 -756h-328l-628 710l-125 -710h-236l253 1434h236l-111 -632l780 632h328z" />
    <glyph glyph-name="L" unicode="L" horiz-adv-x="1103" 
d="M271 214h735l-37 -215h-973l1 1l37 214l215 1220h237z" />
    <glyph glyph-name="M" unicode="M" horiz-adv-x="1748" 
d="M1438 1434l218 -1l-98 -1433h-238l47 688q8 108 23.5 206t27.5 142l11 45q-84 -177 -220 -383l-459 -692l-215 692q-28 92 -49.5 187.5t-28.5 145.5l-7 50q-7 -151 -76 -393l-196 -688h-237l407 1434h218l278 -897z" />
    <glyph glyph-name="N" unicode="N" horiz-adv-x="1431" 
d="M1199 1434h236l-253 -1434h-223l-417 777q-48 89 -83 172t-47 122l-11 39q1 -149 -48 -425l-121 -685h-236l253 1434h223l417 -777q48 -89 83.5 -172t46.5 -122l11 -39q-1 149 48 425z" />
    <glyph glyph-name="N" unicode="&#xd1;" horiz-adv-x="1431" 
d="M1199 1434h236l-253 -1434h-223l-417 777q-48 89 -83 172t-47 122l-11 39q1 -149 -48 -425l-121 -685h-236l253 1434h223l417 -777q48 -89 83.5 -172t46.5 -122l11 -39q-1 149 48 425z" />
    <glyph glyph-name="O" unicode="O" horiz-adv-x="1689" 
d="M964 1447q214 0 378 -98t240 -266.5t41 -366.5q-26 -148 -112.5 -283.5t-209 -233.5t-279 -156t-316.5 -58q-214 0 -378 98t-240 266.5t-41 366.5q26 148 112.5 283.5t209 233.5t279 156t316.5 58zM1387 716q25 140 -28.5 259t-168 188t-264.5 69t-289 -69t-234 -188
t-120 -259t28.5 -259t168 -188t264.5 -69t289 69t234 188t120 259z" />
    <glyph glyph-name="O" unicode="&#xd8;" horiz-adv-x="1689" 
d="M964 1447q214 0 378 -98t240 -266.5t41 -366.5q-26 -148 -112.5 -283.5t-209 -233.5t-279 -156t-316.5 -58q-214 0 -378 98t-240 266.5t-41 366.5q26 148 112.5 283.5t209 233.5t279 156t316.5 58zM1387 716q25 140 -28.5 259t-168 188t-264.5 69t-289 -69t-234 -188
t-120 -259t28.5 -259t168 -188t264.5 -69t289 69t234 188t120 259z" />
    <glyph glyph-name="O" unicode="&#xd6;" horiz-adv-x="1689" 
d="M964 1447q214 0 378 -98t240 -266.5t41 -366.5q-26 -148 -112.5 -283.5t-209 -233.5t-279 -156t-316.5 -58q-214 0 -378 98t-240 266.5t-41 366.5q26 148 112.5 283.5t209 233.5t279 156t316.5 58zM1387 716q25 140 -28.5 259t-168 188t-264.5 69t-289 -69t-234 -188
t-120 -259t28.5 -259t168 -188t264.5 -69t289 69t234 188t120 259z" />
    <glyph glyph-name="O" unicode="&#xd5;" horiz-adv-x="1689" 
d="M964 1447q214 0 378 -98t240 -266.5t41 -366.5q-26 -148 -112.5 -283.5t-209 -233.5t-279 -156t-316.5 -58q-214 0 -378 98t-240 266.5t-41 366.5q26 148 112.5 283.5t209 233.5t279 156t316.5 58zM1387 716q25 140 -28.5 259t-168 188t-264.5 69t-289 -69t-234 -188
t-120 -259t28.5 -259t168 -188t264.5 -69t289 69t234 188t120 259z" />
    <glyph glyph-name="O" unicode="&#xd4;" horiz-adv-x="1689" 
d="M964 1447q214 0 378 -98t240 -266.5t41 -366.5q-26 -148 -112.5 -283.5t-209 -233.5t-279 -156t-316.5 -58q-214 0 -378 98t-240 266.5t-41 366.5q26 148 112.5 283.5t209 233.5t279 156t316.5 58zM1387 716q25 140 -28.5 259t-168 188t-264.5 69t-289 -69t-234 -188
t-120 -259t28.5 -259t168 -188t264.5 -69t289 69t234 188t120 259z" />
    <glyph glyph-name="O" unicode="&#xd3;" horiz-adv-x="1689" 
d="M964 1447q214 0 378 -98t240 -266.5t41 -366.5q-26 -148 -112.5 -283.5t-209 -233.5t-279 -156t-316.5 -58q-214 0 -378 98t-240 266.5t-41 366.5q26 148 112.5 283.5t209 233.5t279 156t316.5 58zM1387 716q25 140 -28.5 259t-168 188t-264.5 69t-289 -69t-234 -188
t-120 -259t28.5 -259t168 -188t264.5 -69t289 69t234 188t120 259z" />
    <glyph glyph-name="O" unicode="&#xd2;" horiz-adv-x="1689" 
d="M964 1447q214 0 378 -98t240 -266.5t41 -366.5q-26 -148 -112.5 -283.5t-209 -233.5t-279 -156t-316.5 -58q-214 0 -378 98t-240 266.5t-41 366.5q26 148 112.5 283.5t209 233.5t279 156t316.5 58zM1387 716q25 140 -28.5 259t-168 188t-264.5 69t-289 -69t-234 -188
t-120 -259t28.5 -259t168 -188t264.5 -69t289 69t234 188t120 259z" />
    <glyph glyph-name="P" unicode="P" horiz-adv-x="1298" 
d="M1304 1180q27 -80 10 -177q-17 -95 -72 -176q-55 -80 -144 -140q-85 -56 -193 -86q-105 -29 -222 -29h-349l-101 -572h-236l252 1433h585q122 0 213 -28q99 -31 162 -85q67 -57 95 -140zM1077 1003q9 49 -4 87q-12 37 -43 64q-33 29 -91 46q-63 19 -142 19h-349l-76 -432
h348q79 0 149 19q64 17 107 46q41 26 67 65q25 35 34 86z" />
    <glyph glyph-name="Q" unicode="Q" horiz-adv-x="1757" 
d="M972 1448q160 0 296 -58t224.5 -156t127 -233.5t12.5 -283.5q-23 -128 -89.5 -245t-166.5 -213l239 -259h-315l-109 119q-226 -133 -477 -133q-214 0 -378 98t-240 266.5t-41 366.5q26 148 112.5 283.5t209 233.5t279 156t316.5 58zM1395 717q25 140 -28.5 259t-168 188
t-264.5 69t-289 -69t-234 -188t-120 -259t28.5 -259t168 -188t264.5 -69q152 0 296 73l-221 238h315l93 -100q131 137 160 305z" />
    <glyph glyph-name="R" unicode="R" horiz-adv-x="1368" 
d="M1167 781q-51 -49 -117 -82t-123 -45t-107 -16.5t-79 -2.5l-29 2l520 -637h-313l-559 723l-128 -723h-236l253 1434h575q114 0 207 -28q97 -29 159 -81q67 -57 94 -135q27 -79 11 -171q-17 -93 -71 -171q-24 -34 -57 -67zM377 818h338q81 0 145 18q62 17 103 44
q39 26 63 60q24 35 32 79q8 46 -4 79q-12 34 -41 59q-33 27 -88 44q-58 18 -139 18h-339z" />
    <glyph glyph-name="S" unicode="S" horiz-adv-x="1239" 
d="M724 847q46 -16 74 -26.5t79.5 -34t84 -46t71.5 -59t59 -76t30.5 -94.5t1.5 -117q-25 -169 -176 -285q-86 -66 -198 -102t-232 -36q-23 0 -35 1q-207 9 -343 118.5t-156 284.5l238 56q9 -81 59 -137t113.5 -80t137.5 -27q79 -4 152.5 16t124.5 59q68 52 78 126
q6 41 -6 75.5t-34.5 59t-64 48t-78.5 38.5t-95 35q-27 9 -62 23q-5 2 -16.5 6t-14.5 5q-25 9 -40.5 15t-46.5 19t-51 24.5t-49.5 29t-49 36.5t-42 42.5t-34.5 50.5t-21 57.5t-8 67t11 76.5q14 54 44.5 105.5t79.5 99t111.5 83.5t145.5 57t175 21q188 0 308.5 -77t158.5 -222
l-233 -80q-43 164 -271 164q-12 0 -30.5 -1t-61.5 -10.5t-78.5 -25t-69.5 -50t-46 -80.5q-17 -66 36 -110t181 -91q6 -2 18 -6.5t17 -6.5q2 -1 54 -19z" />
    <glyph glyph-name="T" unicode="T" horiz-adv-x="1159" 
d="M135 1434h1141l-38 -215h-452l-215 -1219h-237l215 1219h-452z" />
    <glyph glyph-name="U" unicode="U" horiz-adv-x="1376" 
d="M1161 1434h236l-160 -908q-21 -122 -80 -223q-62 -105 -151 -178q-93 -76 -209 -115q-110 -38 -240 -38q-129 0 -225 38q-102 39 -169 115q-65 74 -89 178q-24 98 -2 223l160 908h236l-160 -908q-15 -84 0 -149q15 -62 52 -103q38 -42 94 -64q64 -24 141 -24q81 0 150 24
q66 22 115 63q54 45 88 104q38 66 53 149z" />
    <glyph glyph-name="U" unicode="&#xdc;" horiz-adv-x="1376" 
d="M1161 1434h236l-160 -908q-21 -122 -80 -223q-62 -105 -151 -178q-93 -76 -209 -115q-110 -38 -240 -38q-129 0 -225 38q-102 39 -169 115q-65 74 -89 178q-24 98 -2 223l160 908h236l-160 -908q-15 -84 0 -149q15 -62 52 -103q38 -42 94 -64q64 -24 141 -24q81 0 150 24
q66 22 115 63q54 45 88 104q38 66 53 149z" />
    <glyph glyph-name="U" unicode="&#xdb;" horiz-adv-x="1376" 
d="M1161 1434h236l-160 -908q-21 -122 -80 -223q-62 -105 -151 -178q-93 -76 -209 -115q-110 -38 -240 -38q-129 0 -225 38q-102 39 -169 115q-65 74 -89 178q-24 98 -2 223l160 908h236l-160 -908q-15 -84 0 -149q15 -62 52 -103q38 -42 94 -64q64 -24 141 -24q81 0 150 24
q66 22 115 63q54 45 88 104q38 66 53 149z" />
    <glyph glyph-name="U" unicode="&#xda;" horiz-adv-x="1376" 
d="M1161 1434h236l-160 -908q-21 -122 -80 -223q-62 -105 -151 -178q-93 -76 -209 -115q-110 -38 -240 -38q-129 0 -225 38q-102 39 -169 115q-65 74 -89 178q-24 98 -2 223l160 908h236l-160 -908q-15 -84 0 -149q15 -62 52 -103q38 -42 94 -64q64 -24 141 -24q81 0 150 24
q66 22 115 63q54 45 88 104q38 66 53 149z" />
    <glyph glyph-name="U" unicode="&#xd9;" horiz-adv-x="1376" 
d="M1161 1434h236l-160 -908q-21 -122 -80 -223q-62 -105 -151 -178q-93 -76 -209 -115q-110 -38 -240 -38q-129 0 -225 38q-102 39 -169 115q-65 74 -89 178q-24 98 -2 223l160 908h236l-160 -908q-15 -84 0 -149q15 -62 52 -103q38 -42 94 -64q64 -24 141 -24q81 0 150 24
q66 22 115 63q54 45 88 104q38 66 53 149z" />
    <glyph glyph-name="V" unicode="V" horiz-adv-x="1441" 
d="M1312 1434h252l-829 -1434h-282l-323 1434h251l261 -1159z" />
    <glyph glyph-name="W" unicode="W" horiz-adv-x="2011" 
d="M1882 1434h251l-813 -1434h-241l-100 561l-299 -561h-241l-307 1434h251l236 -1100l282 497l-130 603h251l52 -332l168 332h251l-341 -603l106 -497z" />
    <glyph glyph-name="X" unicode="X" horiz-adv-x="1361" 
d="M1477 1434l-653 -717l401 -717h-285l-293 524l-477 -524h-285l654 717l-401 717h284l293 -524l478 524h284z" />
    <glyph glyph-name="Y" unicode="Y" horiz-adv-x="1318" 
d="M1170 1434h284l-683 -750l-121 -684h-237l121 684l-419 750h284l293 -524z" />
    <glyph glyph-name="Y" unicode="&#x178;" horiz-adv-x="1318" 
d="M1170 1434h284l-683 -750l-121 -684h-237l121 684l-419 750h284l293 -524z" />
    <glyph glyph-name="Y" unicode="&#xdd;" horiz-adv-x="1318" 
d="M1170 1434h284l-683 -750l-121 -684h-237l121 684l-419 750h284l293 -524z" />
    <glyph glyph-name="Z" unicode="Z" horiz-adv-x="1228" 
d="M1266 1434l-38 -213l-979 -1006h853l-38 -215h-1148l37 211l982 1008h-753l37 215h1047z" />
    <glyph glyph-name="bracketleft" unicode="[" horiz-adv-x="475" 
d="M294 1683h475l-36 -202h-252l-267 -1518h251l-35 -202h-474z" />
    <glyph glyph-name="backslash" unicode="\" horiz-adv-x="929" 
d="M384 1439l398 -1434h-240l-399 1434h241z" />
    <glyph glyph-name="bracketright" unicode="]" horiz-adv-x="475" 
d="M47 1683h474l-339 -1922h-474l35 202h252l268 1518h-252z" />
    <glyph glyph-name="underscore" unicode="_" horiz-adv-x="1036" 
d="M-48 188h946l-35 -202h-946z" />
    <glyph glyph-name="a" unicode="a" 
d="M1111 1037h236l-180 -1024h-237l25 141q-86 -74 -182 -114q-110 -47 -229 -50q-117 -2 -219 40q-99 40 -167 118q-66 75 -91 174.5t-6 202.5q17 103 77.5 202t152.5 175q97 78 209 118q114 41 232 39q120 -3 212 -49q82 -40 142 -114zM1020 525q13 70 -9 134.5t-72 106.5
q-45 41 -113 62q-65 20 -132 17q-142 -5 -256 -96q-117 -92 -141 -224q-22 -133 62 -223q82 -91 223 -96q69 -3 137 16q74 21 135 63q65 42 109.5 106t56.5 134z" />
    <glyph glyph-name="a" unicode="&#xe5;" 
d="M1111 1037h236l-180 -1024h-237l25 141q-86 -74 -182 -114q-110 -47 -229 -50q-117 -2 -219 40q-99 40 -167 118q-66 75 -91 174.5t-6 202.5q17 103 77.5 202t152.5 175q97 78 209 118q114 41 232 39q120 -3 212 -49q82 -40 142 -114zM1020 525q13 70 -9 134.5t-72 106.5
q-45 41 -113 62q-65 20 -132 17q-142 -5 -256 -96q-117 -92 -141 -224q-22 -133 62 -223q82 -91 223 -96q69 -3 137 16q74 21 135 63q65 42 109.5 106t56.5 134z" />
    <glyph glyph-name="a" unicode="&#xe4;" 
d="M1111 1037h236l-180 -1024h-237l25 141q-86 -74 -182 -114q-110 -47 -229 -50q-117 -2 -219 40q-99 40 -167 118q-66 75 -91 174.5t-6 202.5q17 103 77.5 202t152.5 175q97 78 209 118q114 41 232 39q120 -3 212 -49q82 -40 142 -114zM1020 525q13 70 -9 134.5t-72 106.5
q-45 41 -113 62q-65 20 -132 17q-142 -5 -256 -96q-117 -92 -141 -224q-22 -133 62 -223q82 -91 223 -96q69 -3 137 16q74 21 135 63q65 42 109.5 106t56.5 134z" />
    <glyph glyph-name="a" unicode="&#xe3;" 
d="M1111 1037h236l-180 -1024h-237l25 141q-86 -74 -182 -114q-110 -47 -229 -50q-117 -2 -219 40q-99 40 -167 118q-66 75 -91 174.5t-6 202.5q17 103 77.5 202t152.5 175q97 78 209 118q114 41 232 39q120 -3 212 -49q82 -40 142 -114zM1020 525q13 70 -9 134.5t-72 106.5
q-45 41 -113 62q-65 20 -132 17q-142 -5 -256 -96q-117 -92 -141 -224q-22 -133 62 -223q82 -91 223 -96q69 -3 137 16q74 21 135 63q65 42 109.5 106t56.5 134z" />
    <glyph glyph-name="a" unicode="&#xe2;" 
d="M1111 1037h236l-180 -1024h-237l25 141q-86 -74 -182 -114q-110 -47 -229 -50q-117 -2 -219 40q-99 40 -167 118q-66 75 -91 174.5t-6 202.5q17 103 77.5 202t152.5 175q97 78 209 118q114 41 232 39q120 -3 212 -49q82 -40 142 -114zM1020 525q13 70 -9 134.5t-72 106.5
q-45 41 -113 62q-65 20 -132 17q-142 -5 -256 -96q-117 -92 -141 -224q-22 -133 62 -223q82 -91 223 -96q69 -3 137 16q74 21 135 63q65 42 109.5 106t56.5 134z" />
    <glyph glyph-name="a" unicode="&#xe1;" 
d="M1111 1037h236l-180 -1024h-237l25 141q-86 -74 -182 -114q-110 -47 -229 -50q-117 -2 -219 40q-99 40 -167 118q-66 75 -91 174.5t-6 202.5q17 103 77.5 202t152.5 175q97 78 209 118q114 41 232 39q120 -3 212 -49q82 -40 142 -114zM1020 525q13 70 -9 134.5t-72 106.5
q-45 41 -113 62q-65 20 -132 17q-142 -5 -256 -96q-117 -92 -141 -224q-22 -133 62 -223q82 -91 223 -96q69 -3 137 16q74 21 135 63q65 42 109.5 106t56.5 134z" />
    <glyph glyph-name="a" unicode="&#xe0;" 
d="M1111 1037h236l-180 -1024h-237l25 141q-86 -74 -182 -114q-110 -47 -229 -50q-117 -2 -219 40q-99 40 -167 118q-66 75 -91 174.5t-6 202.5q17 103 77.5 202t152.5 175q97 78 209 118q114 41 232 39q120 -3 212 -49q82 -40 142 -114zM1020 525q13 70 -9 134.5t-72 106.5
q-45 41 -113 62q-65 20 -132 17q-142 -5 -256 -96q-117 -92 -141 -224q-22 -133 62 -223q82 -91 223 -96q69 -3 137 16q74 21 135 63q65 42 109.5 106t56.5 134z" />
    <glyph glyph-name="b" unicode="b" 
d="M1211 902q66 -75 91 -174.5t6 -202.5q-17 -103 -77 -202.5t-152 -174.5q-99 -80 -209 -119q-114 -41 -233 -39q-118 3 -212 50q-83 41 -142 114l-24 -141h-237l253 1434h236l-97 -551q85 74 183 114q108 46 229 49q119 2 218 -39q99 -40 167 -118zM1073 525
q22 133 -63 224q-82 91 -222 96q-67 3 -138 -17q-77 -22 -135 -62q-65 -42 -109.5 -106.5t-56.5 -134.5q-13 -70 9.5 -134t72.5 -106q47 -43 113 -63q62 -19 131 -16q143 5 256 95q56 44 93.5 102.5t48.5 121.5z" />
    <glyph glyph-name="c" unicode="c" horiz-adv-x="1144" 
d="M582 206q81 0 158 33.5t137 94.5l169 -126q-100 -102 -233 -159.5t-269 -57.5h-2q-117 0 -216.5 43t-164 114.5t-92.5 170.5t-8 208q19 106 80 203t156 173q197 157 435 157h2q137 0 250.5 -59t176.5 -163l-215 -124q-37 62 -103 96.5t-148 34.5h-1q-138 0 -255 -92
q-119 -94 -142 -227q-24 -132 59.5 -226t224.5 -94h1z" />
    <glyph glyph-name="c" unicode="&#xe7;" horiz-adv-x="1144" 
d="M582 206q81 0 158 33.5t137 94.5l169 -126q-100 -102 -233 -159.5t-269 -57.5h-2q-117 0 -216.5 43t-164 114.5t-92.5 170.5t-8 208q19 106 80 203t156 173q197 157 435 157h2q137 0 250.5 -59t176.5 -163l-215 -124q-37 62 -103 96.5t-148 34.5h-1q-138 0 -255 -92
q-119 -94 -142 -227q-24 -132 59.5 -226t224.5 -94h1z" />
    <glyph glyph-name="d" unicode="d" 
d="M1183 1447h237l-253 -1434h-237l25 141q-86 -74 -182 -114q-110 -47 -229 -50q-117 -2 -219 40q-99 40 -167 118q-66 75 -91 174.5t-6 202.5q17 103 77.5 202t152.5 175q97 78 209 118q114 41 232 39q120 -3 212 -49q82 -40 142 -114zM1021 525q13 70 -9.5 134.5
t-72.5 106.5q-45 41 -113 62q-65 20 -132 17q-142 -5 -256 -96q-117 -92 -141 -224q-22 -132 63 -223q82 -91 222 -96q66 -3 137 17q77 22 135 62q65 43 110 106.5t57 133.5z" />
    <glyph glyph-name="e" unicode="e" horiz-adv-x="1273" 
d="M731 1060q117 0 216.5 -42.5t164 -114t92.5 -170.5t9 -208q-7 -44 -24 -88h-894q17 -101 106.5 -166t217.5 -65q87 0 169.5 31t146.5 86l202 -93q-105 -111 -252.5 -175t-303.5 -64q-167 0 -296.5 71.5t-190.5 194.5t-35 268t125 268.5t245 195t302 71.5zM325 614h654
q-14 101 -92.5 166t-193.5 65t-217 -65t-151 -166z" />
    <glyph glyph-name="e" unicode="&#xeb;" horiz-adv-x="1273" 
d="M731 1060q117 0 216.5 -42.5t164 -114t92.5 -170.5t9 -208q-7 -44 -24 -88h-894q17 -101 106.5 -166t217.5 -65q87 0 169.5 31t146.5 86l202 -93q-105 -111 -252.5 -175t-303.5 -64q-167 0 -296.5 71.5t-190.5 194.5t-35 268t125 268.5t245 195t302 71.5zM325 614h654
q-14 101 -92.5 166t-193.5 65t-217 -65t-151 -166z" />
    <glyph glyph-name="e" unicode="&#xea;" horiz-adv-x="1273" 
d="M731 1060q117 0 216.5 -42.5t164 -114t92.5 -170.5t9 -208q-7 -44 -24 -88h-894q17 -101 106.5 -166t217.5 -65q87 0 169.5 31t146.5 86l202 -93q-105 -111 -252.5 -175t-303.5 -64q-167 0 -296.5 71.5t-190.5 194.5t-35 268t125 268.5t245 195t302 71.5zM325 614h654
q-14 101 -92.5 166t-193.5 65t-217 -65t-151 -166z" />
    <glyph glyph-name="e" unicode="&#xe9;" horiz-adv-x="1273" 
d="M731 1060q117 0 216.5 -42.5t164 -114t92.5 -170.5t9 -208q-7 -44 -24 -88h-894q17 -101 106.5 -166t217.5 -65q87 0 169.5 31t146.5 86l202 -93q-105 -111 -252.5 -175t-303.5 -64q-167 0 -296.5 71.5t-190.5 194.5t-35 268t125 268.5t245 195t302 71.5zM325 614h654
q-14 101 -92.5 166t-193.5 65t-217 -65t-151 -166z" />
    <glyph glyph-name="e" unicode="&#xe8;" horiz-adv-x="1273" 
d="M731 1060q117 0 216.5 -42.5t164 -114t92.5 -170.5t9 -208q-7 -44 -24 -88h-894q17 -101 106.5 -166t217.5 -65q87 0 169.5 31t146.5 86l202 -93q-105 -111 -252.5 -175t-303.5 -64q-167 0 -296.5 71.5t-190.5 194.5t-35 268t125 268.5t245 195t302 71.5zM325 614h654
q-14 101 -92.5 166t-193.5 65t-217 -65t-151 -166z" />
    <glyph glyph-name="f" unicode="f" horiz-adv-x="763" 
d="M642 1213q-60 -41 -80 -156l-3 -19h271l-38 -215h-271l-143 -810h-236l142 810h-203l38 215h203l4 19q38 214 189 318q84 58 178 75t212 12l-38 -215q-88 3 -139 -3.5t-86 -30.5z" />
    <glyph glyph-name="g" unicode="g" horiz-adv-x="1343" 
d="M1089 1037h236l-158 -892q-40 -224 -187 -366.5t-376 -179.5q-59 -10 -123 -10q-178 0 -321 78t-206 213l224 109q46 -100 165 -150.5t256 -28.5q281 45 332 335l4 23q-82 -71 -174 -109q-108 -45 -225 -48q-120 -2 -215 38q-97 40 -164 117q-64 74 -89 170.5t-6 198.5
q17 102 76.5 199t149.5 171q95 76 205 116q109 40 228 38q116 -3 207 -48q80 -39 137 -109zM1000 535q13 67 -9 130t-71 104q-46 41 -110 60t-127 16q-138 -5 -248 -93q-113 -88 -137 -217q-10 -60 6 -117t55 -99q79 -88 215 -93q62 -3 133 16t131 60q63 41 106.5 103
t55.5 130z" />
    <glyph glyph-name="h" unicode="h" horiz-adv-x="1187" 
d="M1070 899q70 -129 33 -328l-97 -558h-238l99 558q12 62 6 113t-30 89q-46 71 -144 80q-51 4 -100 -9q-55 -15 -99 -51q-48 -37 -86 -98q-34 -53 -54 -124q-1 -6 -4.5 -18.5t-5.5 -18.5l-92 -521h-236l253 1434h236l-90 -513q52 50 110 80q52 26 103 39q45 12 103 15
q112 5 199 -39q88 -44 134 -130z" />
    <glyph glyph-name="i" unicode="i" horiz-adv-x="458" 
d="M22 13l181 1024h236l-180 -1024h-237zM393 1447q62 0 98.5 -44.5t25.5 -106.5t-63 -106t-114 -44t-98.5 44t-25.5 106t63 106.5t114 44.5z" />
    <glyph glyph-name="i" unicode="&#xef;" horiz-adv-x="458" 
d="M22 13l181 1024h236l-180 -1024h-237zM393 1447q62 0 98.5 -44.5t25.5 -106.5t-63 -106t-114 -44t-98.5 44t-25.5 106t63 106.5t114 44.5z" />
    <glyph glyph-name="i" unicode="&#xee;" horiz-adv-x="458" 
d="M22 13l181 1024h236l-180 -1024h-237zM393 1447q62 0 98.5 -44.5t25.5 -106.5t-63 -106t-114 -44t-98.5 44t-25.5 106t63 106.5t114 44.5z" />
    <glyph glyph-name="i" unicode="&#xed;" horiz-adv-x="458" 
d="M22 13l181 1024h236l-180 -1024h-237zM393 1447q62 0 98.5 -44.5t25.5 -106.5t-63 -106t-114 -44t-98.5 44t-25.5 106t63 106.5t114 44.5z" />
    <glyph glyph-name="i" unicode="&#xec;" horiz-adv-x="458" 
d="M22 13l181 1024h236l-180 -1024h-237zM393 1447q62 0 98.5 -44.5t25.5 -106.5t-63 -106t-114 -44t-98.5 44t-25.5 106t63 106.5t114 44.5z" />
    <glyph glyph-name="j" unicode="j" horiz-adv-x="464" 
d="M398 1447q62 0 98.5 -44.5t25.5 -106.5t-63 -106t-114 -44t-98.5 44t-25.5 106t63 106.5t114 44.5zM44 110l164 927h236l-163 -926q-26 -148 -67.5 -239.5t-128.5 -163.5q-144 -120 -373 -120q-15 0 -51 2l51 214q153 -8 226 51q41 34 63.5 88t42.5 167z" />
    <glyph glyph-name="k" unicode="k" horiz-adv-x="1150" 
d="M1126 1036l-523 -454l449 -569h-308l-393 527l-92 -527h-237l253 1433h236l-144 -821l451 411h308z" />
    <glyph glyph-name="l" unicode="l" horiz-adv-x="456" 
d="M275 1446h236l-253 -1433h-236z" />
    <glyph glyph-name="m" unicode="m" horiz-adv-x="1783" 
d="M1712 794q5 -34 3 -84q-4 -54 -9 -82l-12 -69l-96 -546h-236l96 546l12 68q5 32 5 54q0 24 -5 49q-4 24 -14 43q-17 36 -47 55q-15 10 -32 16q-18 8 -41 9q-56 5 -92 -5q-52 -13 -97 -53q-51 -44 -81 -105q-14 -27 -25 -63q-9 -30 -14 -52l-3 -16l-96 -546h-236l97 546
l12 68q4 25 4 54t-4 49q-4 24 -14 43q-17 36 -47 55q-14 10 -33 16q-18 8 -41 9q-55 5 -91 -5q-53 -14 -98 -53q-51 -44 -81 -105q-14 -27 -25 -63q-2 -8 -6 -23.5t-6 -22.5l-101 -568h-236l181 1024h236l-17 -96q34 36 75 61q53 32 101 47t106 18q56 2 104 -8
q52 -12 96 -38q85 -51 118 -143q5 -12 8 -22q48 90 137 147q49 30 101 46q48 15 105 18q57 2 105 -8q52 -12 96 -38q85 -51 118 -143q13 -37 20 -84z" />
    <glyph glyph-name="n" unicode="n" horiz-adv-x="1191" 
d="M1077 899q38 -73 43 -167q2 -28 -2 -84q-1 -12 -5 -41l-7 -37l-97 -557h-237l99 557l5 32q2 20 3 29q2 23 -1 53q-7 56 -28 90t-58 55t-85 25q-57 5 -102 -7q-54 -13 -103 -50q-51 -38 -89 -99q-34 -55 -53 -128q-1 -7 -4.5 -19.5t-5.5 -18.5l-92 -519h-236l181 1024h236
l-22 -124q54 61 123 98q93 51 205 56q58 2 102 -6q49 -9 96 -32q45 -22 80 -56q31 -31 54 -74z" />
    <glyph glyph-name="n" unicode="&#xf1;" horiz-adv-x="1191" 
d="M1077 899q38 -73 43 -167q2 -28 -2 -84q-1 -12 -5 -41l-7 -37l-97 -557h-237l99 557l5 32q2 20 3 29q2 23 -1 53q-7 56 -28 90t-58 55t-85 25q-57 5 -102 -7q-54 -13 -103 -50q-51 -38 -89 -99q-34 -55 -53 -128q-1 -7 -4.5 -19.5t-5.5 -18.5l-92 -519h-236l181 1024h236
l-22 -124q54 61 123 98q93 51 205 56q58 2 102 -6q49 -9 96 -32q45 -22 80 -56q31 -31 54 -74z" />
    <glyph glyph-name="o" unicode="o" horiz-adv-x="1271" 
d="M732 1060q156 0 276.5 -71.5t176.5 -195t30 -268.5t-125 -268t-244.5 -194.5t-301.5 -71.5t-276.5 71.5t-176.5 194.5t-30 268t125 268.5t244.5 195t301.5 71.5zM979 525q23 132 -60.5 226t-224.5 94t-257.5 -94t-139.5 -226t60.5 -226t224.5 -94t257.5 94t139.5 226z
" />
    <glyph glyph-name="o" unicode="&#xf8;" horiz-adv-x="1271" 
d="M732 1060q156 0 276.5 -71.5t176.5 -195t30 -268.5t-125 -268t-244.5 -194.5t-301.5 -71.5t-276.5 71.5t-176.5 194.5t-30 268t125 268.5t244.5 195t301.5 71.5zM979 525q23 132 -60.5 226t-224.5 94t-257.5 -94t-139.5 -226t60.5 -226t224.5 -94t257.5 94t139.5 226z
" />
    <glyph glyph-name="o" unicode="&#xf6;" horiz-adv-x="1271" 
d="M732 1060q156 0 276.5 -71.5t176.5 -195t30 -268.5t-125 -268t-244.5 -194.5t-301.5 -71.5t-276.5 71.5t-176.5 194.5t-30 268t125 268.5t244.5 195t301.5 71.5zM979 525q23 132 -60.5 226t-224.5 94t-257.5 -94t-139.5 -226t60.5 -226t224.5 -94t257.5 94t139.5 226z
" />
    <glyph glyph-name="o" unicode="&#xf5;" horiz-adv-x="1271" 
d="M732 1060q156 0 276.5 -71.5t176.5 -195t30 -268.5t-125 -268t-244.5 -194.5t-301.5 -71.5t-276.5 71.5t-176.5 194.5t-30 268t125 268.5t244.5 195t301.5 71.5zM979 525q23 132 -60.5 226t-224.5 94t-257.5 -94t-139.5 -226t60.5 -226t224.5 -94t257.5 94t139.5 226z
" />
    <glyph glyph-name="o" unicode="&#xf4;" horiz-adv-x="1271" 
d="M732 1060q156 0 276.5 -71.5t176.5 -195t30 -268.5t-125 -268t-244.5 -194.5t-301.5 -71.5t-276.5 71.5t-176.5 194.5t-30 268t125 268.5t244.5 195t301.5 71.5zM979 525q23 132 -60.5 226t-224.5 94t-257.5 -94t-139.5 -226t60.5 -226t224.5 -94t257.5 94t139.5 226z
" />
    <glyph glyph-name="o" unicode="&#xf3;" horiz-adv-x="1271" 
d="M732 1060q156 0 276.5 -71.5t176.5 -195t30 -268.5t-125 -268t-244.5 -194.5t-301.5 -71.5t-276.5 71.5t-176.5 194.5t-30 268t125 268.5t244.5 195t301.5 71.5zM979 525q23 132 -60.5 226t-224.5 94t-257.5 -94t-139.5 -226t60.5 -226t224.5 -94t257.5 94t139.5 226z
" />
    <glyph glyph-name="o" unicode="&#xf2;" horiz-adv-x="1271" 
d="M732 1060q156 0 276.5 -71.5t176.5 -195t30 -268.5t-125 -268t-244.5 -194.5t-301.5 -71.5t-276.5 71.5t-176.5 194.5t-30 268t125 268.5t244.5 195t301.5 71.5zM979 525q23 132 -60.5 226t-224.5 94t-257.5 -94t-139.5 -226t60.5 -226t224.5 -94t257.5 94t139.5 226z
" />
    <glyph glyph-name="p" unicode="p" 
d="M1211 902q66 -75 91 -174.5t6 -202.5q-17 -103 -77.5 -202t-152.5 -175q-99 -80 -209 -119q-114 -41 -232 -39q-118 3 -212 50q-83 41 -142 114l-97 -550h-236l252 1433h237l-25 -141q86 74 182 114q108 46 229 49q120 2 219 -39q99 -40 167 -118zM1072 525
q22 134 -62 224q-82 91 -223 96q-66 3 -137 -17q-77 -22 -135 -62q-65 -42 -109.5 -106.5t-56.5 -134.5q-13 -70 9 -134t72 -106q47 -43 113 -63q62 -19 132 -16q143 5 256 95q117 92 141 224z" />
    <glyph glyph-name="q" unicode="q" 
d="M1111 1037h236l-252 -1433h-237l97 550q-86 -74 -182 -114q-110 -47 -229 -50q-117 -2 -219 40q-99 40 -167 118q-66 75 -91 174.5t-6 202.5q17 103 77.5 202t152.5 175q97 78 209 118q114 41 232 39q120 -3 212 -49q82 -40 142 -114zM1021 525q13 70 -9.5 134.5
t-72.5 106.5q-45 41 -113 62q-64 20 -131 17q-143 -5 -257 -96q-117 -92 -141 -224q-22 -132 63 -223q82 -91 222 -96q66 -3 137 17q77 22 135 62q65 43 110 106.5t57 133.5z" />
    <glyph glyph-name="r" unicode="r" horiz-adv-x="831" 
d="M847 1061q34 -7 59 -16l-95 -229q-8 7 -19 13q-37 21 -85 25q-57 5 -102 -7q-54 -13 -103 -50q-51 -38 -89 -99q-34 -55 -53 -128q-1 -7 -4.5 -19.5t-5.5 -18.5l-92 -519h-236l181 1024h236l-22 -124q54 61 123 98q93 51 205 56q58 2 102 -6z" />
    <glyph glyph-name="s" unicode="s" horiz-adv-x="989" 
d="M583 646q35 -11 54.5 -18t60 -24.5t65 -33.5t55.5 -43.5t47 -57.5t24.5 -71.5t1.5 -88.5q-18 -125 -133 -214q-138 -107 -337 -107h-26q-158 7 -263.5 87.5t-122.5 208.5l238 59q9 -68 65.5 -102.5t130.5 -37.5q112 -5 176 45q30 24 34 55q7 46 -36.5 77t-144.5 63
q-30 9 -46 15q-3 1 -10.5 4t-10.5 4q-18 6 -29.5 10.5l-34.5 13.5t-39.5 18t-39.5 22t-38.5 27.5t-33 32t-27.5 38.5t-17 45t-6.5 52t8.5 59q24 91 96.5 156.5t159.5 94t179 28.5q144 0 237.5 -57.5t124.5 -164.5l-233 -84q-26 91 -167 91q-5 0 -16 -1t-36 -5.5t-46.5 -12
t-40.5 -24t-25 -38.5q-8 -28 30 -51.5t109 -47.5q10 -3 26 -9q31 -11 37 -13z" />
    <glyph glyph-name="t" unicode="t" horiz-adv-x="845" 
d="M547 815l-74 -419q-11 -60 -10.5 -96.5t6.5 -48.5t18 -21q47 -34 246 -11l-38 -216q-74 -8 -135 -8q-159 0 -241 59q-40 29 -63 68t-29 86t-3.5 90t12.5 98l74 419h-230l38 215h230l41 230l258 124l-62 -354h291l-38 -215h-291z" />
    <glyph glyph-name="u" unicode="u" horiz-adv-x="1187" 
d="M933 1037h236l-180 -1024h-237l22 124q-54 -61 -123 -98q-93 -51 -204 -56q-59 -2 -103 6t-96 32q-41 20 -79 57q-33 33 -55 74q-38 74 -43 166q-1 21 3 84q1 12 5 41l6 37l98 557h236l-98 -557l-6 -32q-2 -20 -3 -29q-2 -23 1 -53q6 -53 29 -89q23 -37 57 -56
q35 -20 85 -24q60 -5 102 6q54 13 103 50q53 39 90 99q34 55 53 128q2 7 5.5 19.5t4.5 18.5z" />
    <glyph glyph-name="u" unicode="&#xfc;" horiz-adv-x="1187" 
d="M933 1037h236l-180 -1024h-237l22 124q-54 -61 -123 -98q-93 -51 -204 -56q-59 -2 -103 6t-96 32q-41 20 -79 57q-33 33 -55 74q-38 74 -43 166q-1 21 3 84q1 12 5 41l6 37l98 557h236l-98 -557l-6 -32q-2 -20 -3 -29q-2 -23 1 -53q6 -53 29 -89q23 -37 57 -56
q35 -20 85 -24q60 -5 102 6q54 13 103 50q53 39 90 99q34 55 53 128q2 7 5.5 19.5t4.5 18.5z" />
    <glyph glyph-name="u" unicode="&#xfb;" horiz-adv-x="1187" 
d="M933 1037h236l-180 -1024h-237l22 124q-54 -61 -123 -98q-93 -51 -204 -56q-59 -2 -103 6t-96 32q-41 20 -79 57q-33 33 -55 74q-38 74 -43 166q-1 21 3 84q1 12 5 41l6 37l98 557h236l-98 -557l-6 -32q-2 -20 -3 -29q-2 -23 1 -53q6 -53 29 -89q23 -37 57 -56
q35 -20 85 -24q60 -5 102 6q54 13 103 50q53 39 90 99q34 55 53 128q2 7 5.5 19.5t4.5 18.5z" />
    <glyph glyph-name="u" unicode="&#xfa;" horiz-adv-x="1187" 
d="M933 1037h236l-180 -1024h-237l22 124q-54 -61 -123 -98q-93 -51 -204 -56q-59 -2 -103 6t-96 32q-41 20 -79 57q-33 33 -55 74q-38 74 -43 166q-1 21 3 84q1 12 5 41l6 37l98 557h236l-98 -557l-6 -32q-2 -20 -3 -29q-2 -23 1 -53q6 -53 29 -89q23 -37 57 -56
q35 -20 85 -24q60 -5 102 6q54 13 103 50q53 39 90 99q34 55 53 128q2 7 5.5 19.5t4.5 18.5z" />
    <glyph glyph-name="u" unicode="&#xf9;" horiz-adv-x="1187" 
d="M933 1037h236l-180 -1024h-237l22 124q-54 -61 -123 -98q-93 -51 -204 -56q-59 -2 -103 6t-96 32q-41 20 -79 57q-33 33 -55 74q-38 74 -43 166q-1 21 3 84q1 12 5 41l6 37l98 557h236l-98 -557l-6 -32q-2 -20 -3 -29q-2 -23 1 -53q6 -53 29 -89q23 -37 57 -56
q35 -20 85 -24q60 -5 102 6q54 13 103 50q53 39 90 99q34 55 53 128q2 7 5.5 19.5t4.5 18.5z" />
    <glyph glyph-name="v" unicode="v" horiz-adv-x="1095" 
d="M916 1037h250l-569 -1024h-278l-208 1024h250l144 -757z" />
    <glyph glyph-name="w" unicode="w" horiz-adv-x="1689" 
d="M1509 1036h256l-651 -1024h-227l-73 340l-192 -340h-227l-290 1024h256l202 -713l163 257l-128 456h256l41 -228l121 228h257l-290 -456l72 -257z" />
    <glyph glyph-name="x" unicode="x" horiz-adv-x="1105" 
d="M1172 1036l-475 -512l294 -512h-286l-180 347l-303 -347h-286l475 512l-294 512h286l180 -346l302 346h287z" />
    <glyph glyph-name="y" unicode="y" horiz-adv-x="1200" 
d="M1276 1036l-14 -21l-899 -1412h-256l280 440l-282 993h256l189 -757l357 580l112 177h257z" />
    <glyph glyph-name="y" unicode="&#xff;" horiz-adv-x="1200" 
d="M1276 1036l-14 -21l-899 -1412h-256l280 440l-282 993h256l189 -757l357 580l112 177h257z" />
    <glyph glyph-name="y" unicode="&#xfd;" horiz-adv-x="1200" 
d="M1276 1036l-14 -21l-899 -1412h-256l280 440l-282 993h256l189 -757l357 580l112 177h257z" />
    <glyph glyph-name="z" unicode="z" horiz-adv-x="1017" 
d="M1019 1037l-35 -199l-657 -611h583l-38 -215h-903l35 198l658 612h-516l37 215h836z" />
    <glyph glyph-name="braceleft" unicode="{" horiz-adv-x="518" 
d="M326 1384q29 162 131 235t306 73q-7 -39 -27 -153q-107 0 -161.5 -38.5t-69.5 -124.5q-6 -35 -32.5 -183.5t-42.5 -241.5q-34 -191 -176 -229q129 -39 95 -230q-16 -92 -42 -238.5t-33 -185.5q-15 -86 26 -124.5t148 -38.5l-27 -153q-205 0 -281 73t-47 235
q62 348 73 413q12 69 -11 117.5t-86 64.5l12 67q4 23 12 66q134 31 160 182q17 100 73 414z" />
    <glyph glyph-name="braceright" unicode="}" horiz-adv-x="520" 
d="M355 970q-26 -151 96 -182l-11 -66q-4 -24 -12 -67q-69 -16 -109 -64t-52 -117q-17 -100 -73 -414q-29 -162 -130.5 -235t-306.5 -73q7 39 27 153q107 0 161.5 38.5t69.5 124.5q7 39 33 185.5t42 238.5q34 192 176 230q-129 37 -95 229q16 93 42.5 241.5t32.5 183.5
q15 86 -26 124.5t-148 38.5l27 153q205 0 281.5 -73t47.5 -235q-56 -314 -73 -414z" />
    <glyph glyph-name="asciitilde" unicode="~" horiz-adv-x="1241" 
d="M991 652l186 -31q-38 -104 -108 -176.5t-160 -101.5q-56 -18 -112 -18q-143 0 -284 113q-122 99 -210 70q-37 -12 -70 -50t-53 -94l-186 31q38 104 108 176.5t160 101.5q196 65 395 -95q123 -99 211 -70q37 12 70 50t53 94z" />
    <glyph glyph-name="nonbreakingspace" unicode="&#xa0;" horiz-adv-x="808" 
 />
    <glyph glyph-name="cent" unicode="&#xa2;" horiz-adv-x="1196" 
d="M927 704q-30 49 -87 85l-367 -580q49 -14 89 -14h1q81 0 158 33.5t137 95.5l169 -126q-100 -102 -233 -159.5t-269 -57.5h-2q-95 0 -176 27l-188 -296h-206l240 380q-92 75 -133 186t-18 238q19 106 80 203.5t156 173.5q197 157 435 157h2q35 0 80 -7l174 275h206
l-208 -328q110 -57 174 -162zM328 304l334 530q-134 -5 -242 -91q-119 -94 -142 -227q-22 -119 50 -212z" />
    <glyph glyph-name="sterling" unicode="&#xa3;" horiz-adv-x="1275" 
d="M364 205h710l-36 -202h-1022l36 202q62 0 113.5 40t61.5 97l49 278h-221l36 202h221l25 145q39 222 183 351q151 136 361 136q167 0 273 -96q102 -90 122 -258l-224 -52q-12 105 -69 156q-54 48 -138 48q-107 0 -179 -65q-80 -73 -106 -220l-26 -145h346l-35 -202h-347
l-40 -229q-12 -65 -35.5 -111.5t-40.5 -60.5z" />
    <glyph glyph-name="yen" unicode="&#xa5;" horiz-adv-x="1236" 
d="M1292 1439l-541 -634h363l-29 -167h-370l-34 -188h371l-30 -167h-370l-49 -278h-223l50 278h-371l30 167h370l33 188h-370l29 167h363l-317 634h261l212 -423l361 423h261z" />
    <glyph glyph-name="copyright" unicode="&#xa9;" horiz-adv-x="1671" 
d="M708 887q-81 -68 -98 -165q-17 -96 39 -165t153 -69q96 0 178 69l97 -118q-138 -118 -304 -118q-167 0 -263 118t-67 283t167 283q137 117 304 117q168 0 263 -117l-139 -118q-56 69 -153 69q-95 0 -177 -69zM970 1473q152 0 280.5 -59.5t211.5 -160t118 -239.5t8 -292
q-27 -152 -111 -291.5t-202.5 -240t-268 -160t-301.5 -59.5t-280.5 59.5t-211.5 160t-118 239.5t-8 292q27 152 111 291.5t202.5 240t268 160t301.5 59.5zM1421 722q28 158 -26.5 292.5t-175.5 213t-279 78.5t-306.5 -78.5t-250 -213t-129.5 -292.5t26.5 -292.5t175.5 -213
t279 -78.5t306.5 78.5t250 213t129.5 292.5z" />
    <glyph glyph-name="softhyphen" unicode="&#xad;" horiz-adv-x="0" 
 />
    <glyph glyph-name="registered" unicode="&#xae;" horiz-adv-x="1671" 
d="M970 1473q152 0 280.5 -59.5t211.5 -160t118 -239.5t8 -292q-27 -152 -111 -291.5t-202.5 -240t-268 -160t-301.5 -59.5t-280.5 59.5t-211.5 160t-118 239.5t-8 292q27 152 111 291.5t202.5 240t268 160t301.5 59.5zM1421 722q28 158 -26.5 292.5t-175.5 213t-279 78.5
t-306.5 -78.5t-250 -213t-129.5 -292.5t26.5 -292.5t175 -213t278.5 -78.5t306.5 78.5t250.5 213t130 292.5zM1119 1063q33 -33 47 -85q13 -51 3 -105q-7 -39 -24 -75q-22 -43 -52 -74.5t-57.5 -45t-51.5 -21t-38 -7.5l-15 -1l176 -328h-194l-141 293h-50l-52 -293h-161
l143 811h275q60 0 109 -17q49 -18 83 -52zM992 833q13 21 15 40q4 21 -1 41q-4 14 -15 27q-12 13 -34 21q-21 8 -59 8h-113l-34 -194h113q35 0 62 9q25 8 41 21t25 27z" />
    <glyph glyph-name="multiply" unicode="&#xd7;" horiz-adv-x="948" 
d="M907 865l-309 -263l216 -263l-168 -143l-216 263l-310 -263l-118 143l310 263l-217 263l169 143l216 -263l309 263z" />
    <glyph glyph-name="divide" unicode="&#xf7;" horiz-adv-x="958" 
d="M489 142q-50 -46 -113 -48.5t-101 39.5t-30 104.5t58 108.5t113.5 48.5t101.5 -39.5t29.5 -104.5t-58.5 -108.5zM492 788q-62 0 -98.5 44.5t-25.5 106.5t63.5 106t114.5 44t98.5 -44t25.5 -106t-63.5 -106.5t-114.5 -44.5zM53 694h845l-36 -203h-844z" />
    <glyph glyph-name="quoteleft" unicode="&#x2018;" horiz-adv-x="473" 
d="M379 1441h162l-223 -602h-238z" />
    <glyph glyph-name="quoteright" unicode="&#x2019;" horiz-adv-x="468" 
d="M311 1441h238l-299 -602h-162z" />
    <glyph glyph-name="quotedblleft" unicode="&#x201c;" horiz-adv-x="872" 
d="M371 1441h161l-222 -602h-238zM786 1441h162l-223 -602h-238z" />
    <glyph glyph-name="quotedblright" unicode="&#x201d;" horiz-adv-x="851" 
d="M304 1441h239l-299 -602h-162zM707 1441h239l-299 -602h-162z" />
    <glyph glyph-name="Euro" unicode="&#x20ac;" horiz-adv-x="1445" 
d="M753 1091q-62 -48 -109 -108h396l-29 -167h-464q-35 -96 -34 -188h465l-30 -167h-396q29 -63 71 -109q102 -110 264.5 -141.5t331.5 25.5l48 -189q-147 -50 -300 -50q-157 0 -294 54.5t-232 157.5q-100 109 -136 252h-273l29 167h227q3 95 33 188h-227l30 167h273
q84 141 224 251q195 153 435.5 197t448.5 -35l-115 -188q-150 57 -323.5 25t-313.5 -142z" />
    <glyph glyph-name="trademark" unicode="&#x2122;" horiz-adv-x="1382" 
d="M135 1308l23 126h517l-22 -126h-189l-89 -503h-139l89 503h-190zM1306 1434h124l-111 -630h-139l65 374l-224 -256l-134 256l-66 -374h-139l111 630h124l145 -277z" />
    </font>
</defs>
</svg>
