<?xml version="1.0" standalone="no"?>
<!DOCTYPE svg PUBLIC "-//W3C//DTD SVG 1.1//EN" "http://www.w3.org/Graphics/SVG/1.1/DTD/svg11.dtd" >
<svg xmlns="http://www.w3.org/2000/svg" xmlns:xlink="http://www.w3.org/1999/xlink" version="1.1">
<metadata>
Created by FontForge 20170731 at Thu Apr  7 00:02:37 2022
 By Aleksey,,,
</metadata>
<defs>
<font id="RanyLight" horiz-adv-x="1308" >
  <font-face 
    font-family="Rany Light"
    font-weight="300"
    font-stretch="normal"
    units-per-em="2048"
    panose-1="0 0 0 0 0 0 0 0 0 0"
    ascent="1638"
    descent="-410"
    x-height="1027"
    cap-height="1434"
    bbox="-236 -425 1887 1683"
    underline-thickness="102"
    underline-position="-307"
    unicode-range="U+000A-2122"
  />
<missing-glyph horiz-adv-x="1079" 
d="M102 1434h875v-1434h-875v1434zM160 1393l379 -633l381 633h-760zM514 717l-369 614v-1231zM541 674l-379 -631h758zM565 717l371 -621v1239z" />
    <glyph glyph-name=".notdef" horiz-adv-x="1079" 
d="M102 1434h875v-1434h-875v1434zM160 1393l379 -633l381 633h-760zM514 717l-369 614v-1231zM541 674l-379 -631h758zM565 717l371 -621v1239z" />
    <glyph glyph-name=".null" horiz-adv-x="0" 
 />
    <glyph glyph-name=".null" horiz-adv-x="0" 
 />
    <glyph glyph-name="nonmarkingreturn" horiz-adv-x="682" 
 />
    <glyph glyph-name="controlLF" unicode="&#xa;" horiz-adv-x="0" 
 />
    <glyph glyph-name="controlCR" unicode="&#xd;" horiz-adv-x="0" 
 />
    <glyph glyph-name="space" unicode=" " horiz-adv-x="491" 
 />
    <glyph glyph-name="exclam" unicode="!" horiz-adv-x="385" 
d="M246 441h-109l-8 987h125zM192 189q40 0 68.5 -28.5t28.5 -68.5q0 -41 -28.5 -69.5t-68.5 -28.5t-69 29t-29 69t28.5 68.5t69.5 28.5z" />
    <glyph glyph-name="numbersign" unicode="#" horiz-adv-x="1519" 
d="M1436 886h-311l-94 -350h311l-31 -114h-311l-114 -428h-126l115 428h-385l-115 -428h-125l114 428h-311l31 114h311l94 350h-311l30 114h311l115 428h125l-115 -428h386l115 428h125l-115 -428h311zM905 536l94 350h-385l-94 -350h385z" />
    <glyph glyph-name="dollar" unicode="$" horiz-adv-x="1189" 
d="M680 788q61 -21 105.5 -39t109 -56t106 -79.5t73 -107t33.5 -142.5q5 -159 -119 -269q-119 -105 -308 -121v-143h-125v144q-179 19 -310 123t-175 264l121 27q37 -134 138 -208t226 -91v621q-1 0 -3 1q-5 2 -17 6.5t-18 6.5q-39 14 -62 23t-69 30.5t-75 41t-65.5 51.5
t-57 65.5t-33.5 79t-9 96.5q14 177 176 270q104 60 233 68v140h125v-146q136 -18 233 -89.5t146 -189.5l-117 -40q-70 171 -262 204v-541zM555 834v501q-30 -3 -59 -8.5t-70 -22t-72 -39.5t-55 -65t-28 -95t17 -95.5t66 -75t89.5 -54t111.5 -46.5zM901 176q84 73 81 185
q-2 60 -25.5 108.5t-68 84.5t-92.5 61t-116 51v-578q138 14 221 88z" />
    <glyph glyph-name="percent" unicode="%" horiz-adv-x="1478" 
d="M1113 1428h144l-892 -1434h-144zM634 1158q0 -118 -84.5 -201.5t-203.5 -83.5t-204 83.5t-85 201.5t85 201.5t204 83.5t203.5 -83.5t84.5 -201.5zM172 1158q0 -70 51.5 -120.5t122.5 -50.5t122 50.5t51 120.5t-51 120.5t-122 50.5t-122.5 -50.5t-51.5 -120.5zM1133 549
q119 0 203.5 -83.5t84.5 -201.5t-84.5 -201.5t-203.5 -83.5t-204 83.5t-85 201.5t85 201.5t204 83.5zM1133 93q71 0 122 50.5t51 120.5t-51 120.5t-122 50.5t-122 -50.5t-51 -120.5t51 -120.5t122 -50.5z" />
    <glyph glyph-name="ampersand" unicode="&#x26;" horiz-adv-x="1415" 
d="M1046 357q59 -62 182 -190t166 -173h-166q-74 77 -264 275q-121 -126 -215 -188q-151 -98 -307.5 -93t-267.5 112q-100 96 -102 227t95 247q91 109 255 249q-71 71 -115 130.5t-62 121.5q-19 64 -7.5 129.5t51.5 117.5q73 97 202 109q142 14 237 -61q93 -74 96 -184
q3 -100 -50.5 -179.5t-176.5 -188.5q64 -62 98 -97q114 -116 268 -277q125 135 222 245l84 -87q-102 -114 -223 -245zM366 1103q23 -79 146 -202q105 94 147 154t40 127q-2 62 -53 102q-44 35 -114 35q-8 0 -28 -2q-73 -7 -112 -60q-24 -32 -31 -72.5t5 -81.5zM676 173
q86 56 205 183q-76 79 -279 290q-33 34 -95 94q-54 -47 -79 -69t-73.5 -70t-88.5 -96q-38 -46 -57 -98.5t-8 -115.5t63 -113q80 -77 189 -78t223 73z" />
    <glyph glyph-name="parenleft" unicode="(" horiz-adv-x="505" 
d="M221 711q-2 -248 98 -484q98 -233 282 -421l-78 -66q-109 106 -182 209q-76 107 -134 238q-109 249 -111 524q2 277 110 524q53 122 135 238q77 109 181 210l80 -67q-184 -188 -282 -421q-100 -238 -99 -484z" />
    <glyph glyph-name="parenright" unicode=")" horiz-adv-x="505" 
d="M299 1235q108 -247 110 -524q-2 -277 -110 -524q-57 -127 -135 -238q-75 -106 -181 -209l-79 66q184 188 282 421q100 236 98 484q2 248 -98 484q-98 233 -282 421l79 67q107 -104 182 -210q80 -113 134 -238z" />
    <glyph glyph-name="asterisk" unicode="*" horiz-adv-x="823" 
d="M765 1127l-275 -83l174 -229l-91 -67l-162 238l-162 -238l-91 67l174 229l-275 83l35 108l270 -96l-7 289h112l-7 -289l270 96z" />
    <glyph glyph-name="plus" unicode="+" horiz-adv-x="1040" 
d="M993 569h-416v-416h-114v416h-416v114h416v416h114v-416h416v-114z" />
    <glyph glyph-name="comma" unicode="," horiz-adv-x="268" 
d="M99 244h126l-174 -602h-86z" />
    <glyph glyph-name="hyphen" unicode="-" horiz-adv-x="911" 
d="M877 569h-844v114h844v-114z" />
    <glyph glyph-name="period" unicode="." horiz-adv-x="278" 
d="M138 189q41 0 69.5 -28.5t28.5 -68.5t-29 -69t-69 -29t-68.5 28.5t-28.5 69.5q0 40 28.5 68.5t68.5 28.5z" />
    <glyph glyph-name="slash" unicode="/" horiz-adv-x="821" 
d="M668 1428h135l-651 -1434h-136z" />
    <glyph glyph-name="zero" unicode="0" horiz-adv-x="1191" 
d="M1097 724q0 -345 -133 -539.5t-368 -194.5q-236 0 -369 194.5t-133 539.5t133 540t369 195q235 0 368 -195t133 -540zM972 724q0 292 -99.5 456.5t-276.5 164.5t-277 -164.5t-100 -456.5t100 -456t277 -164t276.5 164t99.5 456z" />
    <glyph glyph-name="one" unicode="1" horiz-adv-x="630" 
d="M49 1274l460 208v-1474h-126v1290l-334 -152v128z" />
    <glyph glyph-name="two" unicode="2" horiz-adv-x="1114" 
d="M239 122h811v-114h-989v99q319 343 710 761q53 56 71 104q16 42 16 92q0 115 -90 197t-217 82t-217.5 -82t-90.5 -197h-125q0 163 127 278t306 115q117 0 216.5 -52.5t157.5 -143t58 -197.5q0 -66 -23 -129q-24 -65 -93 -140q-54 -57 -297 -318t-331 -355z" />
    <glyph glyph-name="three" unicode="3" horiz-adv-x="1116" 
d="M833 782q93 -61 147 -153.5t54 -199.5q0 -118 -65 -218.5t-177 -159t-243 -58.5q-201 0 -343.5 128t-142.5 308h126q0 -134 105.5 -228.5t254.5 -94.5q148 0 253.5 94.5t105.5 228.5t-105.5 228.5t-253.5 94.5q-62 0 -114 -16l-78 96l472 496h-729v114h882v-127
l-452 -463q6 1 17 2t44.5 0.5t67.5 -6.5t82 -22.5t92 -43.5z" />
    <glyph glyph-name="four" unicode="4" horiz-adv-x="1146" 
d="M1111 502v-114h-277v-380h-125v380h-662v97l571 956h142l-560 -939h509v423h125v-423h277z" />
    <glyph glyph-name="five" unicode="5" horiz-adv-x="1138" 
d="M1057 438q0 -121 -65.5 -223.5t-178 -162t-245.5 -59.5q-99 0 -190 35.5t-156.5 95t-104.5 142t-39 172.5h125q0 -137 107 -234t258 -97t257.5 97t106.5 234q0 72 -32.5 137t-92.5 112q-48 37 -114.5 59.5t-180.5 22.5h-357l106 673h749v-114h-641l-70 -445h213
q239 0 378 -110q80 -64 123.5 -151.5t43.5 -183.5z" />
    <glyph glyph-name="six" unicode="6" horiz-adv-x="1103" 
d="M1018 552q56 -174 -42 -334q-97 -159 -290 -209q-68 -17 -133 -17q-125 0 -235 56q-86 43 -146 113.5t-85.5 150.5t-16 168t57.5 166l485 795h143l-399 -628q2 2 5 4t15 9.5t25.5 13.5t36 13.5t47 10.5t58 5.5t69.5 -2.5h1q20 -2 31 -4q77 -15 141 -47q85 -43 145 -111
t87 -153zM867 273q71 118 31 248q-42 131 -172 196q-81 41 -175 41q-96 0 -181 -44.5t-133 -123.5q-46 -82 -44.5 -165.5t51 -159t135.5 -118.5q132 -66 273 -29q144 38 215 155z" />
    <glyph glyph-name="seven" unicode="7" horiz-adv-x="1095" 
d="M358 8l536 1320h-773v114h953l-583 -1434h-133z" />
    <glyph glyph-name="eight" unicode="8" horiz-adv-x="1165" 
d="M926 733q71 -58 112.5 -139.5t41.5 -168.5q1 -87 -39 -169.5t-111 -142.5q-70 -59 -161 -91t-187 -32q-205 2 -347 124q-71 59 -111.5 141.5t-39.5 169.5q0 87 41.5 169t112.5 140q58 48 138 80q-41 21 -71 46q-58 47 -92 112.5t-34 135.5q-1 70 32 137t91 115
q116 97 280 99q163 0 281 -99q58 -48 90.5 -115t31.5 -137q0 -70 -34 -136t-92 -112q-31 -26 -72 -46q78 -31 139 -81zM295 1108q-1 -49 21 -94.5t63 -79.5q85 -70 203 -72q120 2 204 72q87 73 84 174q-2 100 -89 170q-82 67 -199 67q-116 2 -199 -66q-88 -70 -88 -171z
M847 195q55 44 86 104.5t31 125.5q1 65 -29 127t-84 107q-112 95 -269 95q-159 -2 -268 -95q-54 -45 -84 -107t-29 -127q0 -65 30.5 -125t85.5 -105q53 -44 122.5 -68t142.5 -23q73 -1 142.5 23t122.5 68z" />
    <glyph glyph-name="nine" unicode="9" horiz-adv-x="1103" 
d="M85 896q-56 176 41 335t290 209q68 17 134 17q125 0 235 -56q86 -43 146 -113.5t85.5 -150.5t16 -168t-57.5 -166l-485 -796h-143l398 628q-2 -1 -5 -3.5t-15 -10t-25.5 -13t-36 -13t-47 -10.5t-58 -5.5t-69.5 2.5q-22 2 -32 4q-77 15 -141 47q-85 43 -144.5 110.5
t-86.5 152.5zM236 1176q-72 -119 -31 -248q42 -131 172 -196q81 -41 174 -41q96 0 181 44t133 123q72 118 30.5 248.5t-171.5 195.5q-131 65 -274 28t-214 -154z" />
    <glyph glyph-name="colon" unicode=":" horiz-adv-x="315" 
d="M157 189q41 0 69 -28.5t28 -68.5q0 -41 -28.5 -69.5t-68.5 -28.5q-41 0 -69.5 29t-28.5 69t28.5 68.5t69.5 28.5zM157 776q-41 0 -69.5 28.5t-28.5 68.5q0 41 28.5 69.5t69.5 28.5q40 0 68.5 -28.5t28.5 -69.5t-28 -69t-69 -28z" />
    <glyph glyph-name="semicolon" unicode=";" horiz-adv-x="323" 
d="M168 776q-41 0 -69.5 28.5t-28.5 68.5q0 41 29 69.5t69 28.5t68.5 -28.5t28.5 -69.5t-28.5 -69t-68.5 -28zM-20 -358l134 602h126l-175 -602h-85z" />
    <glyph glyph-name="less" unicode="&#x3c;" horiz-adv-x="1226" 
d="M1165 1288v-129l-958 -468l958 -468v-129l-1122 548v98z" />
    <glyph glyph-name="equal" unicode="=" horiz-adv-x="1021" 
d="M974 774h-927v114h927v-114zM974 370h-927v113h927v-113z" />
    <glyph glyph-name="greater" unicode="&#x3e;" horiz-adv-x="1226" 
d="M61 1288l1122 -548v-98l-1122 -548v129l959 468l-959 468v129z" />
    <glyph glyph-name="question" unicode="?" horiz-adv-x="880" 
d="M425 171q41 0 69.5 -25.5t28.5 -62.5t-29 -63t-69 -26t-68.5 26t-28.5 63t28 62.5t69 25.5zM813 1110q6 -47 -2 -91t-21 -74.5t-40.5 -66.5t-43.5 -52.5t-48 -46.5l-11 -11t-11 -10l-30 -30q-27 -26 -39 -37.5t-30 -35t-29 -45.5q-17 -36 -21 -71.5t-4 -111.5v-16h-126
v16q0 59 1.5 87t9.5 67.5t25 74.5q15 31 39 62t38.5 45.5t45.5 44.5q10 9 28 27q3 3 11.5 10.5t12.5 11.5q33 32 50.5 51t39 50t28.5 65t2 73q-11 85 -83.5 137.5t-179.5 52.5q-211 0 -267 -203l-121 27q38 138 139 214t249 76q154 0 262.5 -81t125.5 -209z" />
    <glyph glyph-name="at" unicode="@" horiz-adv-x="1781" 
d="M1655 1045q78 -164 38 -336q-20 -90 -64 -161q-52 -83 -127 -134q-90 -63 -196 -63q-66 2 -115 35q-44 28 -69 90q-4 10 -8 34q-20 -25 -32 -39q-109 -120 -254 -136q-84 -10 -160 20q-75 29 -126 95q-86 115 -54 271q26 136 129 239q114 114 265 127q85 8 158 -25
q73 -32 117 -97q6 -9 16 -29l31 159h128l-61 -305l-31 -153q-2 -7 -3 -19t-2 -16q-3 -16 -3 -33v-7q-1 -8 0 -8l1 -15q0 -5 1 -9.5t2.5 -9.5t2.5 -8q17 -46 71 -50q60 0 118 41q113 75 146 228q32 138 -30 270q-57 121 -194 215q-10 8 -65 40q-13 7 -37.5 17.5t-32.5 14.5
q-5 2 -32 11t-42 13l-38 9q-33 8 -38 8q-155 26 -311 -13q-151 -36 -277.5 -130t-200.5 -223q-74 -128 -80 -275.5t59 -277.5q65 -127 196 -217q122 -84 287 -106q154 -22 310.5 22t277.5 140l73 -76q-138 -111 -318 -162t-359 -26q-192 25 -338 124q-152 103 -233 257
q-77 154 -71 325.5t92 319.5q85 149 230 258t320 151q175 46 364 15t336 -131q161 -109 233 -259zM1121 717q11 54 -1 105q-14 52 -47 90q-68 75 -178 62q-100 -12 -184 -93q-78 -77 -100 -180q-21 -109 37 -184q60 -78 167 -70q105 6 195 85t111 185z" />
    <glyph glyph-name="A" unicode="A" horiz-adv-x="1349" 
d="M778 1434l567 -1434h-133l-157 397h-761l-157 -397h-133l567 1434h207zM339 511h671l-336 847z" />
    <glyph glyph-name="A" unicode="&#xc5;" horiz-adv-x="1349" 
d="M778 1434l567 -1434h-133l-157 397h-761l-157 -397h-133l567 1434h207zM339 511h671l-336 847z" />
    <glyph glyph-name="A" unicode="&#xc4;" horiz-adv-x="1349" 
d="M778 1434l567 -1434h-133l-157 397h-761l-157 -397h-133l567 1434h207zM339 511h671l-336 847z" />
    <glyph glyph-name="A" unicode="&#xc3;" horiz-adv-x="1349" 
d="M778 1434l567 -1434h-133l-157 397h-761l-157 -397h-133l567 1434h207zM339 511h671l-336 847z" />
    <glyph glyph-name="A" unicode="&#xc2;" horiz-adv-x="1349" 
d="M778 1434l567 -1434h-133l-157 397h-761l-157 -397h-133l567 1434h207zM339 511h671l-336 847z" />
    <glyph glyph-name="A" unicode="&#xc1;" horiz-adv-x="1349" 
d="M778 1434l567 -1434h-133l-157 397h-761l-157 -397h-133l567 1434h207zM339 511h671l-336 847z" />
    <glyph glyph-name="A" unicode="&#xc0;" horiz-adv-x="1349" 
d="M778 1434l567 -1434h-133l-157 397h-761l-157 -397h-133l567 1434h207zM339 511h671l-336 847z" />
    <glyph glyph-name="B" unicode="B" horiz-adv-x="1261" 
d="M1164 572q38 -76 38 -165q0 -90 -38 -166q-38 -77 -110 -131q-71 -54 -167 -82q-93 -28 -213 -28h-555v1433h520q107 0 191 -25q88 -26 151 -74q65 -50 99 -118q34 -67 34 -149q0 -67 -25 -128q-18 -40 -46 -72.5t-54.5 -50t-50.5 -29t-38 -15.5l-15 -3q6 -1 16.5 -3
t40.5 -11.5t57.5 -23t62.5 -39t61 -57.5q12 -14 17 -22l6 -9q10 -14 18 -32zM639 1320h-395v-506h395q88 0 152 19q67 20 110 53q42 32 65 78t23 103q0 56 -23 102q-21 44 -66 78q-41 32 -109 53q-68 20 -152 20zM1050 288q27 52 27 119q0 66 -27 118q-27 53 -76 91
q-49 37 -126 61q-78 23 -174 23h-430v-586h430q99 0 174 22q77 24 126 61q48 36 76 91z" />
    <glyph glyph-name="C" unicode="C" horiz-adv-x="1470" 
d="M866 91q138 0 264 47.5t223 135.5l89 -80q-115 -105 -264 -161t-312 -56t-311 56t-264 161q-117 106 -177.5 244.5t-60.5 278.5t60.5 278.5t177.5 244.5q115 105 263.5 160.5t311.5 55.5t312 -55.5t264 -160.5l-89 -81q-98 89 -223.5 136.5t-263.5 47.5t-263 -47.5
t-223 -136.5q-99 -90 -150.5 -207t-51.5 -235.5t51.5 -235.5t150.5 -207q98 -89 223 -136t263 -47z" />
    <glyph glyph-name="C" unicode="&#xc7;" horiz-adv-x="1470" 
d="M866 91q138 0 264 47.5t223 135.5l89 -80q-115 -105 -264 -161t-312 -56t-311 56t-264 161q-117 106 -177.5 244.5t-60.5 278.5t60.5 278.5t177.5 244.5q115 105 263.5 160.5t311.5 55.5t312 -55.5t264 -160.5l-89 -81q-98 89 -223.5 136.5t-263.5 47.5t-263 -47.5
t-223 -136.5q-99 -90 -150.5 -207t-51.5 -235.5t51.5 -235.5t150.5 -207q98 -89 223 -136t263 -47z" />
    <glyph glyph-name="D" unicode="D" horiz-adv-x="1482" 
d="M1368 1005q56 -132 56 -288q0 -158 -56 -290q-58 -134 -164 -228t-258 -147q-151 -52 -334 -52h-491v1434h491q183 0 334 -52q153 -54 258 -148q107 -96 164 -229zM1251 468q48 111 48 249q0 136 -48 247q-48 112 -135 189q-88 79 -215 123q-129 44 -289 44h-366v-1206
h366q160 0 289 44q126 43 215 122q89 80 135 188z" />
    <glyph glyph-name="E" unicode="E" horiz-adv-x="1112" 
d="M1063 1320h-817v-539h764v-114h-764v-553h817v-114h-922h-20v1434h20h922v-114z" />
    <glyph glyph-name="E" unicode="&#xcb;" horiz-adv-x="1112" 
d="M1063 1320h-817v-539h764v-114h-764v-553h817v-114h-922h-20v1434h20h922v-114z" />
    <glyph glyph-name="E" unicode="&#xca;" horiz-adv-x="1112" 
d="M1063 1320h-817v-539h764v-114h-764v-553h817v-114h-922h-20v1434h20h922v-114z" />
    <glyph glyph-name="E" unicode="&#xc9;" horiz-adv-x="1112" 
d="M1063 1320h-817v-539h764v-114h-764v-553h817v-114h-922h-20v1434h20h922v-114z" />
    <glyph glyph-name="E" unicode="&#xc8;" horiz-adv-x="1112" 
d="M1063 1320h-817v-539h764v-114h-764v-553h817v-114h-922h-20v1434h20h922v-114z" />
    <glyph glyph-name="F" unicode="F" horiz-adv-x="1089" 
d="M1063 1320h-817v-539h764v-114h-764v-667h-125v1434h20h922v-114z" />
    <glyph glyph-name="G" unicode="G" horiz-adv-x="1681" 
d="M1643 774q3 -28 3 -57q0 -150 -63.5 -287t-170 -236.5t-254 -158t-309.5 -58.5t-309 58.5t-254 158t-170 236.5t-63 287t63 287t170 236t254 157.5t309 58.5q164 0 311 -58.5t258 -163.5l-88 -81q-93 89 -217.5 139.5t-263.5 50.5q-182 0 -336.5 -84t-244.5 -228
t-90 -314t90 -314t244.5 -228t336.5 -84q172 0 320 75.5t241 206t108 287.5h-554l126 114h553z" />
    <glyph glyph-name="H" unicode="H" horiz-adv-x="1280" 
d="M1035 1434h125v-1434h-125v667h-791v-667h-125v1434h125v-653h791v653z" />
    <glyph glyph-name="I" unicode="I" horiz-adv-x="364" 
d="M244 0h-125v1434h125v-1434z" />
    <glyph glyph-name="I" unicode="&#xcf;" horiz-adv-x="364" 
d="M244 0h-125v1434h125v-1434z" />
    <glyph glyph-name="I" unicode="&#xce;" horiz-adv-x="364" 
d="M244 0h-125v1434h125v-1434z" />
    <glyph glyph-name="I" unicode="&#xcd;" horiz-adv-x="364" 
d="M244 0h-125v1434h125v-1434z" />
    <glyph glyph-name="I" unicode="&#xcc;" horiz-adv-x="364" 
d="M244 0h-125v1434h125v-1434z" />
    <glyph glyph-name="J" unicode="J" horiz-adv-x="1083" 
d="M852 1434h125v-958q0 -232 -131 -365q-132 -134 -353 -134q-173 0 -303 95q-129 94 -182 266l121 31q43 -138 139 -208q97 -70 225 -70q166 0 261 96q98 98 98 289v958z" />
    <glyph glyph-name="K" unicode="K" horiz-adv-x="1255" 
d="M385 756l879 -756h-182l-838 721v-721h-125v1434h125v-643l746 643h182z" />
    <glyph glyph-name="L" unicode="L" horiz-adv-x="1028" 
d="M246 114h784v-114h-847h-62v1434h125v-1320z" />
    <glyph glyph-name="M" unicode="M" horiz-adv-x="1636" 
d="M1416 1434l155 -1434h-126l-110 1019q-14 123 -5 189q-36 -101 -75 -180l-437 -897l-436 897q-17 35 -36 80t-30 72l-10 28q9 -66 -5 -189l-110 -1019h-125l154 1434h101l497 -1022l497 1022h101z" />
    <glyph glyph-name="N" unicode="N" horiz-adv-x="1314" 
d="M1069 1434h125v-1434h-101l-771 1082q-20 27 -42.5 65t-35.5 62l-13 24q13 -83 13 -181v-1052h-125v1434h101l771 -1082q20 -27 42.5 -65t35.5 -62l13 -24q-13 82 -13 180v1053z" />
    <glyph glyph-name="N" unicode="&#xd1;" horiz-adv-x="1314" 
d="M1069 1434h125v-1434h-101l-771 1082q-20 27 -42.5 65t-35.5 62l-13 24q13 -83 13 -181v-1052h-125v1434h101l771 -1082q20 -27 42.5 -65t35.5 -62l13 -24q-13 82 -13 180v1053z" />
    <glyph glyph-name="O" unicode="O" horiz-adv-x="1699" 
d="M849 1456q216 0 399.5 -99t290.5 -269t107 -371q0 -150 -63.5 -287t-170 -236.5t-254 -158t-309.5 -58.5t-309 58.5t-254 158t-170 236.5t-63 287t63 287t170 236t254 157.5t309 58.5zM849 91q136 0 260.5 49.5t214.5 133.5t143.5 200t53.5 243t-53.5 243t-143.5 200
t-214.5 133.5t-260.5 49.5q-182 0 -336.5 -84t-244.5 -228t-90 -314t90 -314t244.5 -228t336.5 -84z" />
    <glyph glyph-name="O" unicode="&#xd8;" horiz-adv-x="1699" 
d="M849 1456q216 0 399.5 -99t290.5 -269t107 -371q0 -150 -63.5 -287t-170 -236.5t-254 -158t-309.5 -58.5t-309 58.5t-254 158t-170 236.5t-63 287t63 287t170 236t254 157.5t309 58.5zM849 91q136 0 260.5 49.5t214.5 133.5t143.5 200t53.5 243t-53.5 243t-143.5 200
t-214.5 133.5t-260.5 49.5q-182 0 -336.5 -84t-244.5 -228t-90 -314t90 -314t244.5 -228t336.5 -84z" />
    <glyph glyph-name="O" unicode="&#xd6;" horiz-adv-x="1699" 
d="M849 1456q216 0 399.5 -99t290.5 -269t107 -371q0 -150 -63.5 -287t-170 -236.5t-254 -158t-309.5 -58.5t-309 58.5t-254 158t-170 236.5t-63 287t63 287t170 236t254 157.5t309 58.5zM849 91q136 0 260.5 49.5t214.5 133.5t143.5 200t53.5 243t-53.5 243t-143.5 200
t-214.5 133.5t-260.5 49.5q-182 0 -336.5 -84t-244.5 -228t-90 -314t90 -314t244.5 -228t336.5 -84z" />
    <glyph glyph-name="O" unicode="&#xd5;" horiz-adv-x="1699" 
d="M849 1456q216 0 399.5 -99t290.5 -269t107 -371q0 -150 -63.5 -287t-170 -236.5t-254 -158t-309.5 -58.5t-309 58.5t-254 158t-170 236.5t-63 287t63 287t170 236t254 157.5t309 58.5zM849 91q136 0 260.5 49.5t214.5 133.5t143.5 200t53.5 243t-53.5 243t-143.5 200
t-214.5 133.5t-260.5 49.5q-182 0 -336.5 -84t-244.5 -228t-90 -314t90 -314t244.5 -228t336.5 -84z" />
    <glyph glyph-name="O" unicode="&#xd4;" horiz-adv-x="1699" 
d="M849 1456q216 0 399.5 -99t290.5 -269t107 -371q0 -150 -63.5 -287t-170 -236.5t-254 -158t-309.5 -58.5t-309 58.5t-254 158t-170 236.5t-63 287t63 287t170 236t254 157.5t309 58.5zM849 91q136 0 260.5 49.5t214.5 133.5t143.5 200t53.5 243t-53.5 243t-143.5 200
t-214.5 133.5t-260.5 49.5q-182 0 -336.5 -84t-244.5 -228t-90 -314t90 -314t244.5 -228t336.5 -84z" />
    <glyph glyph-name="O" unicode="&#xd3;" horiz-adv-x="1699" 
d="M849 1456q216 0 399.5 -99t290.5 -269t107 -371q0 -150 -63.5 -287t-170 -236.5t-254 -158t-309.5 -58.5t-309 58.5t-254 158t-170 236.5t-63 287t63 287t170 236t254 157.5t309 58.5zM849 91q136 0 260.5 49.5t214.5 133.5t143.5 200t53.5 243t-53.5 243t-143.5 200
t-214.5 133.5t-260.5 49.5q-182 0 -336.5 -84t-244.5 -228t-90 -314t90 -314t244.5 -228t336.5 -84z" />
    <glyph glyph-name="O" unicode="&#xd2;" horiz-adv-x="1699" 
d="M849 1456q216 0 399.5 -99t290.5 -269t107 -371q0 -150 -63.5 -287t-170 -236.5t-254 -158t-309.5 -58.5t-309 58.5t-254 158t-170 236.5t-63 287t63 287t170 236t254 157.5t309 58.5zM849 91q136 0 260.5 49.5t214.5 133.5t143.5 200t53.5 243t-53.5 243t-143.5 200
t-214.5 133.5t-260.5 49.5q-182 0 -336.5 -84t-244.5 -228t-90 -314t90 -314t244.5 -228t336.5 -84z" />
    <glyph glyph-name="P" unicode="P" horiz-adv-x="1216" 
d="M1146 1202q37 -73 37 -161q0 -87 -37 -160q-38 -73 -108 -126q-68 -52 -164 -79q-93 -27 -208 -27h-420v-650h-125v1435h545q115 0 208 -27q96 -27 164 -79q70 -52 108 -126zM1032 929q26 50 26 112q0 63 -26 113q-25 50 -73 86q-47 36 -123 58q-79 22 -170 22h-420v-558
h420q91 0 170 22q72 21 122 59q50 37 74 86z" />
    <glyph glyph-name="Q" unicode="Q" horiz-adv-x="1753" 
d="M1460 243l266 -243h-177l-176 160q-107 -87 -241.5 -135t-282.5 -48q-162 0 -309 58.5t-254 158t-170 236.5t-63 287t63 287t170 236.5t254 158t309 58.5t309.5 -58.5t254 -158t170 -236.5t63.5 -287q0 -267 -186 -474zM1371 323q149 171 149 394q0 127 -53 243
t-143 199.5t-214.5 133t-260.5 49.5t-260.5 -49.5t-214.5 -133t-143 -199.5t-53 -243q0 -170 90 -314t244.5 -228t336.5 -84q246 0 435 150l-298 271h177z" />
    <glyph glyph-name="R" unicode="R" horiz-adv-x="1208" 
d="M490 697l706 -697h-169l-781 782v-775h-125v1427h475q110 0 202 -26q91 -25 159 -75q69 -49 105 -120q37 -71 37 -154q0 -81 -37 -153q-36 -70 -105 -121q-58 -43 -144 -70q-28 -8 -31 -9q-2 0 -5 -1t-5 -1q-23 -5 -45.5 -8.5t-47 -4.5t-41.5 -1.5t-43.5 0.5t-36.5 1.5
t-37.5 3t-30.5 2.5zM246 1320v-522h350q92 0 164 21q70 20 119 55q47 35 70 81q25 50 25 104q0 57 -25 105q-23 45 -70 80q-50 36 -119 55q-72 21 -164 21h-350z" />
    <glyph glyph-name="S" unicode="S" horiz-adv-x="1185" 
d="M659 801q37 -12 59 -19.5t64 -23.5t70 -29.5t67 -36t65.5 -44.5t55.5 -53t46.5 -63.5t30 -74t13.5 -87.5q5 -156 -115 -262q-70 -63 -172 -97t-218 -34q-23 0 -34 1q-202 9 -352 115t-200 274l121 29q23 -77 70.5 -136t108.5 -94t126 -53t132 -21q99 -5 186.5 21
t143.5 76q81 72 78 178q-2 55 -24.5 100.5t-55.5 77t-87 60.5t-102.5 47.5t-118.5 41.5q-27 9 -68 23q-4 1 -17 5.5t-20 7.5q-41 14 -66 23.5t-73 30.5t-79 40.5t-69.5 51.5t-60 65.5t-35 79.5t-9.5 97q6 76 42.5 137t86.5 97.5t112.5 61t117 33.5t104.5 9q182 0 309 -72.5
t188 -211.5l-116 -42q-94 213 -381 213q-37 0 -77 -6.5t-85.5 -23t-82 -41.5t-63 -67t-30.5 -95q-3 -43 13.5 -80.5t43 -64t72.5 -52t85.5 -41.5t97.5 -36q7 -3 20.5 -7t18.5 -6q18 -7 63 -22z" />
    <glyph glyph-name="T" unicode="T" horiz-adv-x="1134" 
d="M-4 1434h1141v-114h-508v-1320h-125v1320h-508v114z" />
    <glyph glyph-name="U" unicode="U" horiz-adv-x="1263" 
d="M1034 1434h125v-938q0 -116 -38 -212t-107 -164q-73 -72 -169 -107q-96 -36 -213 -36q-116 0 -212 36q-97 36 -170 107q-70 69 -108 165t-38 211v938h126v-938q0 -98 30 -173q31 -77 82 -126q52 -51 125 -78q76 -28 165 -28t165 28q75 28 125 78q51 49 82 126
q30 75 30 173v938z" />
    <glyph glyph-name="U" unicode="&#xdc;" horiz-adv-x="1263" 
d="M1034 1434h125v-938q0 -116 -38 -212t-107 -164q-73 -72 -169 -107q-96 -36 -213 -36q-116 0 -212 36q-97 36 -170 107q-70 69 -108 165t-38 211v938h126v-938q0 -98 30 -173q31 -77 82 -126q52 -51 125 -78q76 -28 165 -28t165 28q75 28 125 78q51 49 82 126
q30 75 30 173v938z" />
    <glyph glyph-name="U" unicode="&#xdb;" horiz-adv-x="1263" 
d="M1034 1434h125v-938q0 -116 -38 -212t-107 -164q-73 -72 -169 -107q-96 -36 -213 -36q-116 0 -212 36q-97 36 -170 107q-70 69 -108 165t-38 211v938h126v-938q0 -98 30 -173q31 -77 82 -126q52 -51 125 -78q76 -28 165 -28t165 28q75 28 125 78q51 49 82 126
q30 75 30 173v938z" />
    <glyph glyph-name="U" unicode="&#xda;" horiz-adv-x="1263" 
d="M1034 1434h125v-938q0 -116 -38 -212t-107 -164q-73 -72 -169 -107q-96 -36 -213 -36q-116 0 -212 36q-97 36 -170 107q-70 69 -108 165t-38 211v938h126v-938q0 -98 30 -173q31 -77 82 -126q52 -51 125 -78q76 -28 165 -28t165 28q75 28 125 78q51 49 82 126
q30 75 30 173v938z" />
    <glyph glyph-name="U" unicode="&#xd9;" horiz-adv-x="1263" 
d="M1034 1434h125v-938q0 -116 -38 -212t-107 -164q-73 -72 -169 -107q-96 -36 -213 -36q-116 0 -212 36q-97 36 -170 107q-70 69 -108 165t-38 211v938h126v-938q0 -98 30 -173q31 -77 82 -126q52 -51 125 -78q76 -28 165 -28t165 28q75 28 125 78q51 49 82 126
q30 75 30 173v938z" />
    <glyph glyph-name="V" unicode="V" horiz-adv-x="1320" 
d="M1184 1434h134l-576 -1434h-164l-576 1434h133l525 -1306z" />
    <glyph glyph-name="W" unicode="W" horiz-adv-x="1892" 
d="M1755 1434h132l-560 -1434h-123l-258 687l-259 -687h-123l-560 1434h133l489 -1251l253 648l-235 603h133l169 -458l169 458h133l-236 -603l254 -648z" />
    <glyph glyph-name="X" unicode="X" horiz-adv-x="1222" 
d="M1214 1434l-528 -717l528 -717h-151l-452 615l-452 -615h-151l528 717l-528 717h151l452 -615l452 615h151z" />
    <glyph glyph-name="Y" unicode="Y" horiz-adv-x="1181" 
d="M1043 1434h150l-540 -734v-700h-125v700l-540 734h150l453 -615z" />
    <glyph glyph-name="Y" unicode="&#x178;" horiz-adv-x="1181" 
d="M1043 1434h150l-540 -734v-700h-125v700l-540 734h150l453 -615z" />
    <glyph glyph-name="Y" unicode="&#xdd;" horiz-adv-x="1181" 
d="M1043 1434h150l-540 -734v-700h-125v700l-540 734h150l453 -615z" />
    <glyph glyph-name="Z" unicode="Z" horiz-adv-x="1165" 
d="M195 114h953v-114h-1130v79l914 1241h-858v114h1023v-95z" />
    <glyph glyph-name="bracketleft" unicode="[" horiz-adv-x="366" 
d="M546 1559h-300v-1696h300v-114h-425v1924h425v-114z" />
    <glyph glyph-name="backslash" unicode="\" horiz-adv-x="821" 
d="M152 1428l651 -1434h-135l-652 1434h136z" />
    <glyph glyph-name="bracketright" unicode="]" horiz-adv-x="366" 
d="M-180 1673h425v-1924h-425v114h300v1696h-300v114z" />
    <glyph glyph-name="underscore" unicode="_" horiz-adv-x="1007" 
d="M977 -23h-946v114h946v-114z" />
    <glyph glyph-name="a" unicode="a" 
d="M1074 1028h125v-1024h-125v240q-28 -44 -68 -84q-77 -78 -174 -119q-102 -42 -215 -44q-115 0 -218 39t-182 115q-77 73 -119 168.5t-41 196.5q-1 101 41 197.5t119 168.5q79 76 182 115t218 39q111 -1 215 -45q99 -41 174 -118q40 -40 68 -84v239zM1037 356
q37 77 37 160q0 84 -37 161t-102 133q-64 56 -147.5 85t-170.5 27q-86 -1 -167 -33t-141 -88q-61 -56 -94 -130.5t-33 -154.5t33 -154t94 -130q60 -57 141 -89t167 -33q87 -2 170.5 27.5t147.5 85.5q65 56 102 133z" />
    <glyph glyph-name="a" unicode="&#xe5;" 
d="M1074 1028h125v-1024h-125v240q-28 -44 -68 -84q-77 -78 -174 -119q-102 -42 -215 -44q-115 0 -218 39t-182 115q-77 73 -119 168.5t-41 196.5q-1 101 41 197.5t119 168.5q79 76 182 115t218 39q111 -1 215 -45q99 -41 174 -118q40 -40 68 -84v239zM1037 356
q37 77 37 160q0 84 -37 161t-102 133q-64 56 -147.5 85t-170.5 27q-86 -1 -167 -33t-141 -88q-61 -56 -94 -130.5t-33 -154.5t33 -154t94 -130q60 -57 141 -89t167 -33q87 -2 170.5 27.5t147.5 85.5q65 56 102 133z" />
    <glyph glyph-name="a" unicode="&#xe4;" 
d="M1074 1028h125v-1024h-125v240q-28 -44 -68 -84q-77 -78 -174 -119q-102 -42 -215 -44q-115 0 -218 39t-182 115q-77 73 -119 168.5t-41 196.5q-1 101 41 197.5t119 168.5q79 76 182 115t218 39q111 -1 215 -45q99 -41 174 -118q40 -40 68 -84v239zM1037 356
q37 77 37 160q0 84 -37 161t-102 133q-64 56 -147.5 85t-170.5 27q-86 -1 -167 -33t-141 -88q-61 -56 -94 -130.5t-33 -154.5t33 -154t94 -130q60 -57 141 -89t167 -33q87 -2 170.5 27.5t147.5 85.5q65 56 102 133z" />
    <glyph glyph-name="a" unicode="&#xe3;" 
d="M1074 1028h125v-1024h-125v240q-28 -44 -68 -84q-77 -78 -174 -119q-102 -42 -215 -44q-115 0 -218 39t-182 115q-77 73 -119 168.5t-41 196.5q-1 101 41 197.5t119 168.5q79 76 182 115t218 39q111 -1 215 -45q99 -41 174 -118q40 -40 68 -84v239zM1037 356
q37 77 37 160q0 84 -37 161t-102 133q-64 56 -147.5 85t-170.5 27q-86 -1 -167 -33t-141 -88q-61 -56 -94 -130.5t-33 -154.5t33 -154t94 -130q60 -57 141 -89t167 -33q87 -2 170.5 27.5t147.5 85.5q65 56 102 133z" />
    <glyph glyph-name="a" unicode="&#xe2;" 
d="M1074 1028h125v-1024h-125v240q-28 -44 -68 -84q-77 -78 -174 -119q-102 -42 -215 -44q-115 0 -218 39t-182 115q-77 73 -119 168.5t-41 196.5q-1 101 41 197.5t119 168.5q79 76 182 115t218 39q111 -1 215 -45q99 -41 174 -118q40 -40 68 -84v239zM1037 356
q37 77 37 160q0 84 -37 161t-102 133q-64 56 -147.5 85t-170.5 27q-86 -1 -167 -33t-141 -88q-61 -56 -94 -130.5t-33 -154.5t33 -154t94 -130q60 -57 141 -89t167 -33q87 -2 170.5 27.5t147.5 85.5q65 56 102 133z" />
    <glyph glyph-name="a" unicode="&#xe1;" 
d="M1074 1028h125v-1024h-125v240q-28 -44 -68 -84q-77 -78 -174 -119q-102 -42 -215 -44q-115 0 -218 39t-182 115q-77 73 -119 168.5t-41 196.5q-1 101 41 197.5t119 168.5q79 76 182 115t218 39q111 -1 215 -45q99 -41 174 -118q40 -40 68 -84v239zM1037 356
q37 77 37 160q0 84 -37 161t-102 133q-64 56 -147.5 85t-170.5 27q-86 -1 -167 -33t-141 -88q-61 -56 -94 -130.5t-33 -154.5t33 -154t94 -130q60 -57 141 -89t167 -33q87 -2 170.5 27.5t147.5 85.5q65 56 102 133z" />
    <glyph glyph-name="a" unicode="&#xe0;" 
d="M1074 1028h125v-1024h-125v240q-28 -44 -68 -84q-77 -78 -174 -119q-102 -42 -215 -44q-115 0 -218 39t-182 115q-77 73 -119 168.5t-41 196.5q-1 101 41 197.5t119 168.5q79 76 182 115t218 39q111 -1 215 -45q99 -41 174 -118q40 -40 68 -84v239zM1037 356
q37 77 37 160q0 84 -37 161t-102 133q-64 56 -147.5 85t-170.5 27q-86 -1 -167 -33t-141 -88q-61 -56 -94 -130.5t-33 -154.5t33 -154t94 -130q60 -57 141 -89t167 -33q87 -2 170.5 27.5t147.5 85.5q65 56 102 133z" />
    <glyph glyph-name="b" unicode="b" 
d="M1090 882q77 -72 119 -168.5t41 -197.5q1 -101 -41 -196.5t-119 -168.5q-79 -76 -182 -115q-104 -39 -217 -39q-114 2 -216 44q-97 41 -174 119q-38 38 -67 84v-240h-125v1434h125v-650q31 49 67 85q74 76 175 118q104 44 215 45q110 1 217 -39q103 -39 182 -115z
M998 232q61 56 94 130t33 154t-33 154.5t-94 130.5q-60 57 -140.5 88.5t-166.5 32.5q-87 2 -170.5 -27t-147.5 -85q-67 -57 -103 -133q-36 -75 -36 -161q2 -88 36 -160q36 -76 103 -133q64 -56 147.5 -85.5t170.5 -27.5q86 1 166 33t141 89z" />
    <glyph glyph-name="c" unicode="c" horiz-adv-x="1112" 
d="M617 110q104 0 195.5 43t153.5 121l101 -66q-79 -99 -198.5 -155t-251.5 -56h-1q-152 0 -281 70.5t-203.5 190t-74.5 260.5t75.5 260t204 188.5t280.5 69.5h2q133 0 252.5 -57t198.5 -158l-102 -66q-62 79 -154 123t-196 44h-1q-179 0 -306.5 -119t-128.5 -286
q0 -110 58 -203.5t158 -148.5t218 -55h1z" />
    <glyph glyph-name="c" unicode="&#xe7;" horiz-adv-x="1112" 
d="M617 110q104 0 195.5 43t153.5 121l101 -66q-79 -99 -198.5 -155t-251.5 -56h-1q-152 0 -281 70.5t-203.5 190t-74.5 260.5t75.5 260t204 188.5t280.5 69.5h2q133 0 252.5 -57t198.5 -158l-102 -66q-62 79 -154 123t-196 44h-1q-179 0 -306.5 -119t-128.5 -286
q0 -110 58 -203.5t158 -148.5t218 -55h1z" />
    <glyph glyph-name="d" unicode="d" 
d="M1074 1438h125v-1434h-125v240q-28 -44 -68 -84q-77 -78 -174 -119q-102 -42 -215 -44q-115 0 -218 39t-182 115q-77 73 -119 168.5t-41 196.5q-1 101 41 197.5t119 168.5q79 76 182 115q107 40 218 39t215 -45q99 -41 174 -118q40 -40 68 -84v649zM1037 356
q37 77 37 160q0 84 -37 161t-102 133q-64 56 -147.5 85t-170.5 27q-86 -1 -167 -33t-141 -88q-61 -56 -94 -130.5t-33 -154.5t33 -154t94 -130q60 -57 141 -89t167 -33q87 -2 170.5 27.5t147.5 85.5q65 56 102 133z" />
    <glyph glyph-name="e" unicode="e" horiz-adv-x="1232" 
d="M1171 459h-985q25 -149 159 -249t313 -100q114 0 213.5 43t167.5 119l116 -49q-84 -106 -215 -166t-282 -60q-163 0 -302 69.5t-220 189t-81 260.5t75 260.5t204 189.5t281 70t281 -70t204 -189.5t75 -260.5q0 -19 -4 -57zM185 573h860q-23 149 -145 249t-285 100
t-285 -100t-145 -249z" />
    <glyph glyph-name="e" unicode="&#xeb;" horiz-adv-x="1232" 
d="M1171 459h-985q25 -149 159 -249t313 -100q114 0 213.5 43t167.5 119l116 -49q-84 -106 -215 -166t-282 -60q-163 0 -302 69.5t-220 189t-81 260.5t75 260.5t204 189.5t281 70t281 -70t204 -189.5t75 -260.5q0 -19 -4 -57zM185 573h860q-23 149 -145 249t-285 100
t-285 -100t-145 -249z" />
    <glyph glyph-name="e" unicode="&#xea;" horiz-adv-x="1232" 
d="M1171 459h-985q25 -149 159 -249t313 -100q114 0 213.5 43t167.5 119l116 -49q-84 -106 -215 -166t-282 -60q-163 0 -302 69.5t-220 189t-81 260.5t75 260.5t204 189.5t281 70t281 -70t204 -189.5t75 -260.5q0 -19 -4 -57zM185 573h860q-23 149 -145 249t-285 100
t-285 -100t-145 -249z" />
    <glyph glyph-name="e" unicode="&#xe9;" horiz-adv-x="1232" 
d="M1171 459h-985q25 -149 159 -249t313 -100q114 0 213.5 43t167.5 119l116 -49q-84 -106 -215 -166t-282 -60q-163 0 -302 69.5t-220 189t-81 260.5t75 260.5t204 189.5t281 70t281 -70t204 -189.5t75 -260.5q0 -19 -4 -57zM185 573h860q-23 149 -145 249t-285 100
t-285 -100t-145 -249z" />
    <glyph glyph-name="e" unicode="&#xe8;" horiz-adv-x="1232" 
d="M1171 459h-985q25 -149 159 -249t313 -100q114 0 213.5 43t167.5 119l116 -49q-84 -106 -215 -166t-282 -60q-163 0 -302 69.5t-220 189t-81 260.5t75 260.5t204 189.5t281 70t281 -70t204 -189.5t75 -260.5q0 -19 -4 -57zM185 573h860q-23 149 -145 249t-285 100
t-285 -100t-145 -249z" />
    <glyph glyph-name="f" unicode="f" horiz-adv-x="741" 
d="M470 1280q-33 -26 -52.5 -69t-19.5 -125v-58h327v-114h-327v-910h-125v910h-259v114h259v58q0 189 115 280q65 51 146 65t191 10v-114q-97 4 -156 -6t-99 -41z" />
    <glyph glyph-name="g" unicode="g" horiz-adv-x="1298" 
d="M1063 1028h125v-928q0 -211 -114 -346t-322 -169q-65 -10 -116 -10q-169 0 -318.5 74.5t-231.5 202.5l109 57q76 -119 226.5 -178.5t307.5 -33.5q80 13 140.5 44.5t96.5 71t58.5 90.5t30.5 98t8 99v145q-30 -46 -66 -82q-76 -76 -173 -117q-100 -42 -213 -44
q-112 -2 -215 38q-99 38 -180 114q-76 72 -118 167t-41 195q-1 100 41 195t118 167q81 76 180 114q106 40 215 39q110 -2 213 -45q97 -41 173 -117q36 -36 66 -82v241zM1026 357q37 77 37 159q0 84 -36 159q-35 73 -102 132q-63 55 -145.5 83.5t-168.5 26.5
q-179 -2 -303 -119q-60 -55 -93 -129.5t-33 -152.5t33 -152t93 -129q125 -117 303 -119q86 -2 168.5 26.5t145.5 83.5q66 58 101 131z" />
    <glyph glyph-name="h" unicode="h" horiz-adv-x="1103" 
d="M1011 4h-125v583q0 73 -18 128q-20 62 -61 109q-82 96 -228 99q-151 7 -243 -87q-45 -45 -73 -114q-23 -63 -28 -135q0 -3 -0.5 -11t-0.5 -11v-561h-125v1434h125v-604q15 28 31 51q55 73 136 111q78 37 178 40q98 3 183 -32q89 -37 148 -107q103 -124 101 -310v-583z
" />
    <glyph glyph-name="i" unicode="i" horiz-adv-x="344" 
d="M234 4h-125v1024h125v-1024zM171 1406q41 0 69 -28t28 -69t-28.5 -69.5t-68.5 -28.5t-68.5 28.5t-28.5 69.5t28 69t69 28z" />
    <glyph glyph-name="i" unicode="&#xef;" horiz-adv-x="344" 
d="M234 4h-125v1024h125v-1024zM171 1406q41 0 69 -28t28 -69t-28.5 -69.5t-68.5 -28.5t-68.5 28.5t-28.5 69.5t28 69t69 28z" />
    <glyph glyph-name="i" unicode="&#xee;" horiz-adv-x="344" 
d="M234 4h-125v1024h125v-1024zM171 1406q41 0 69 -28t28 -69t-28.5 -69.5t-68.5 -28.5t-68.5 28.5t-28.5 69.5t28 69t69 28z" />
    <glyph glyph-name="i" unicode="&#xed;" horiz-adv-x="344" 
d="M234 4h-125v1024h125v-1024zM171 1406q41 0 69 -28t28 -69t-28.5 -69.5t-68.5 -28.5t-68.5 28.5t-28.5 69.5t28 69t69 28z" />
    <glyph glyph-name="i" unicode="&#xec;" horiz-adv-x="344" 
d="M234 4h-125v1024h125v-1024zM171 1406q41 0 69 -28t28 -69t-28.5 -69.5t-68.5 -28.5t-68.5 28.5t-28.5 69.5t28 69t69 28z" />
    <glyph glyph-name="j" unicode="j" horiz-adv-x="344" 
d="M171 1406q41 0 69 -28t28 -69t-28.5 -69.5t-68.5 -28.5t-68.5 28.5t-28.5 69.5t28 69t69 28zM109 102v926h125v-927q0 -138 -22.5 -221t-87.5 -146q-107 -104 -311 -104q-32 0 -49 1l8 114q181 -10 261 67q43 42 59.5 105t16.5 185z" />
    <glyph glyph-name="k" unicode="k" horiz-adv-x="991" 
d="M371 574l613 -570h-175l-575 535v-535h-125v1433h125v-828l450 419h175z" />
    <glyph glyph-name="l" unicode="l" horiz-adv-x="342" 
d="M234 4h-125v1433h125v-1433z" />
    <glyph glyph-name="m" unicode="m" horiz-adv-x="1638" 
d="M1544 4v1h-125v564v71q0 28 -5 63q-9 64 -40 112q-63 103 -198 108q-68 3 -121 -19q-59 -23 -99 -77q-41 -53 -56 -120q-5 -22 -9 -68l-2 -45v-25v-565h-125v565v70q0 29 -5 64q-9 64 -40 112q-63 103 -197 108q-69 3 -122 -19q-59 -23 -99 -77q-41 -53 -56 -120
q-5 -22 -9 -68l-2 -51v-584h-125v1024h125v-170v2q38 80 112 126q37 23 84 37q43 11 91 13t93 -7q47 -11 89 -33q84 -45 130 -124q21 -38 33 -76q10 37 23 64q38 80 112 126q37 23 84 37q43 11 91 13t93 -7q47 -11 89 -33q83 -44 129 -124q41 -69 52 -155q5 -32 5 -78v-70
v-565z" />
    <glyph glyph-name="n" unicode="n" horiz-adv-x="1103" 
d="M1011 4h-125v582q0 74 -18 129q-20 62 -61 109q-82 96 -228 99q-150 7 -243 -88q-46 -46 -73 -113q-23 -63 -28 -135q0 -3 -0.5 -11t-0.5 -11v-561h-125v1024h125v-194q15 28 31 51q55 73 136 111q78 37 178 40q98 3 183 -32q89 -37 148 -107q103 -124 101 -310v-583z
" />
    <glyph glyph-name="n" unicode="&#xf1;" horiz-adv-x="1103" 
d="M1011 4h-125v582q0 74 -18 129q-20 62 -61 109q-82 96 -228 99q-150 7 -243 -88q-46 -46 -73 -113q-23 -63 -28 -135q0 -3 -0.5 -11t-0.5 -11v-561h-125v1024h125v-194q15 28 31 51q55 73 136 111q78 37 178 40q98 3 183 -32q89 -37 148 -107q103 -124 101 -310v-583z
" />
    <glyph glyph-name="o" unicode="o" horiz-adv-x="1234" 
d="M617 1036q152 0 281 -70t204 -189.5t75 -260.5t-75 -260.5t-204 -189t-281 -69.5t-281 69.5t-204 189t-75 260.5t75 260.5t204 189.5t281 70zM617 110q180 0 307.5 119t127.5 287t-127.5 287t-307.5 119t-307 -119t-127 -287t127 -287t307 -119z" />
    <glyph glyph-name="o" unicode="&#xf8;" horiz-adv-x="1234" 
d="M617 1036q152 0 281 -70t204 -189.5t75 -260.5t-75 -260.5t-204 -189t-281 -69.5t-281 69.5t-204 189t-75 260.5t75 260.5t204 189.5t281 70zM617 110q180 0 307.5 119t127.5 287t-127.5 287t-307.5 119t-307 -119t-127 -287t127 -287t307 -119z" />
    <glyph glyph-name="o" unicode="&#xf6;" horiz-adv-x="1234" 
d="M617 1036q152 0 281 -70t204 -189.5t75 -260.5t-75 -260.5t-204 -189t-281 -69.5t-281 69.5t-204 189t-75 260.5t75 260.5t204 189.5t281 70zM617 110q180 0 307.5 119t127.5 287t-127.5 287t-307.5 119t-307 -119t-127 -287t127 -287t307 -119z" />
    <glyph glyph-name="o" unicode="&#xf5;" horiz-adv-x="1234" 
d="M617 1036q152 0 281 -70t204 -189.5t75 -260.5t-75 -260.5t-204 -189t-281 -69.5t-281 69.5t-204 189t-75 260.5t75 260.5t204 189.5t281 70zM617 110q180 0 307.5 119t127.5 287t-127.5 287t-307.5 119t-307 -119t-127 -287t127 -287t307 -119z" />
    <glyph glyph-name="o" unicode="&#xf4;" horiz-adv-x="1234" 
d="M617 1036q152 0 281 -70t204 -189.5t75 -260.5t-75 -260.5t-204 -189t-281 -69.5t-281 69.5t-204 189t-75 260.5t75 260.5t204 189.5t281 70zM617 110q180 0 307.5 119t127.5 287t-127.5 287t-307.5 119t-307 -119t-127 -287t127 -287t307 -119z" />
    <glyph glyph-name="o" unicode="&#xf3;" horiz-adv-x="1234" 
d="M617 1036q152 0 281 -70t204 -189.5t75 -260.5t-75 -260.5t-204 -189t-281 -69.5t-281 69.5t-204 189t-75 260.5t75 260.5t204 189.5t281 70zM617 110q180 0 307.5 119t127.5 287t-127.5 287t-307.5 119t-307 -119t-127 -287t127 -287t307 -119z" />
    <glyph glyph-name="o" unicode="&#xf2;" horiz-adv-x="1234" 
d="M617 1036q152 0 281 -70t204 -189.5t75 -260.5t-75 -260.5t-204 -189t-281 -69.5t-281 69.5t-204 189t-75 260.5t75 260.5t204 189.5t281 70zM617 110q180 0 307.5 119t127.5 287t-127.5 287t-307.5 119t-307 -119t-127 -287t127 -287t307 -119z" />
    <glyph glyph-name="p" unicode="p" 
d="M1090 874q77 -72 119 -168.5t41 -197.5q1 -101 -41 -196.5t-119 -168.5q-79 -76 -182 -115q-104 -39 -217 -39q-111 1 -215 45q-101 42 -175 118q-38 38 -67 84v-649h-125v1433h125v-239q29 46 67 84q77 78 174 119q102 42 216 44q113 0 217 -39q103 -39 182 -115z
M998 224q61 56 94 130t33 154t-33 154.5t-94 130.5q-60 57 -140.5 88.5t-166.5 32.5q-87 2 -170.5 -27t-147.5 -85q-67 -57 -103 -133q-34 -72 -36 -161q0 -85 36 -160q36 -76 103 -133q64 -56 147.5 -85.5t170.5 -27.5q86 1 166 33t141 89z" />
    <glyph glyph-name="q" unicode="q" 
d="M1074 1020h125v-1433h-125v649q-28 -44 -68 -84q-75 -77 -174 -118q-104 -44 -215 -45t-218 39q-103 39 -182 115q-77 72 -119 168.5t-41 197.5q-1 101 41 196.5t119 168.5q79 76 182 115t218 39q113 -2 215 -44q97 -41 174 -119q40 -40 68 -84v239zM1037 348
q37 77 37 161q-2 86 -37 160q-36 76 -103 133q-132 115 -317 112q-86 -1 -167 -33t-141 -88q-61 -56 -94 -130t-33 -154t33 -154.5t94 -130.5q60 -56 141 -88t167 -33q87 -2 170.5 27t147.5 85q65 56 102 133z" />
    <glyph glyph-name="r" unicode="r" horiz-adv-x="765" 
d="M580 1036q92 2 169 -27l-29 -119q-66 32 -140 33q-151 7 -244 -88q-46 -46 -73 -113q-23 -63 -28 -135q0 -3 -0.5 -11t-0.5 -11v-561h-125v1024h125v-194q17 32 31 52q54 71 136 110q77 37 179 40z" />
    <glyph glyph-name="s" unicode="s" horiz-adv-x="905" 
d="M504 591q35 -11 56.5 -18t61 -23.5t65.5 -32t58.5 -40.5t51.5 -51.5t33.5 -64t15.5 -79.5q3 -112 -83 -189q-107 -96 -288 -96h-25q-147 6 -257 81.5t-146 195.5l121 30q19 -64 68 -108.5t104.5 -63t115.5 -21.5q140 -6 219 63q48 43 46 105q-1 41 -21.5 73.5t-60.5 57
t-78.5 40.5t-97.5 34q-8 3 -24.5 7.5t-23.5 7.5t-25 9q-31 10 -48.5 16.5t-53 22t-58 29.5t-51 37t-44 47.5t-25.5 58.5t-7 71q5 61 37 109.5t81.5 77.5t106.5 44t117 15q131 0 225.5 -53t139.5 -151l-116 -43q-60 133 -249 133q-8 0 -23 -1t-50 -9t-63.5 -21t-53 -42
t-27.5 -68q-2 -25 9 -47.5t28.5 -38.5t47.5 -31.5t56 -25.5t64 -23q2 -1 27 -10q3 -1 44 -14z" />
    <glyph glyph-name="t" unicode="t" horiz-adv-x="798" 
d="M488 172q67 -44 270 -21v-114q-84 -8 -124 -8q-141 0 -219 50q-69 45 -94 116.5t-25 183.5v535h-280v114h280v252l125 66v-318h337v-114h-337v-535q0 -90 15 -136.5t52 -70.5z" />
    <glyph glyph-name="u" unicode="u" horiz-adv-x="1101" 
d="M868 1028h125v-1023h-125v194q-17 -32 -31 -52q-55 -73 -136 -111q-77 -37 -179 -40q-96 -3 -183 33q-89 37 -148 107q-103 123 -101 310v582h125v-582q0 -70 19 -128q21 -64 60 -109q83 -97 228 -100q150 -7 243 88q47 47 74 113q23 63 28 136q0 4 0.5 11t0.5 11v560z
" />
    <glyph glyph-name="u" unicode="&#xfc;" horiz-adv-x="1101" 
d="M868 1028h125v-1023h-125v194q-17 -32 -31 -52q-55 -73 -136 -111q-77 -37 -179 -40q-96 -3 -183 33q-89 37 -148 107q-103 123 -101 310v582h125v-582q0 -70 19 -128q21 -64 60 -109q83 -97 228 -100q150 -7 243 88q47 47 74 113q23 63 28 136q0 4 0.5 11t0.5 11v560z
" />
    <glyph glyph-name="u" unicode="&#xfb;" horiz-adv-x="1101" 
d="M868 1028h125v-1023h-125v194q-17 -32 -31 -52q-55 -73 -136 -111q-77 -37 -179 -40q-96 -3 -183 33q-89 37 -148 107q-103 123 -101 310v582h125v-582q0 -70 19 -128q21 -64 60 -109q83 -97 228 -100q150 -7 243 88q47 47 74 113q23 63 28 136q0 4 0.5 11t0.5 11v560z
" />
    <glyph glyph-name="u" unicode="&#xfa;" horiz-adv-x="1101" 
d="M868 1028h125v-1023h-125v194q-17 -32 -31 -52q-55 -73 -136 -111q-77 -37 -179 -40q-96 -3 -183 33q-89 37 -148 107q-103 123 -101 310v582h125v-582q0 -70 19 -128q21 -64 60 -109q83 -97 228 -100q150 -7 243 88q47 47 74 113q23 63 28 136q0 4 0.5 11t0.5 11v560z
" />
    <glyph glyph-name="u" unicode="&#xf9;" horiz-adv-x="1101" 
d="M868 1028h125v-1023h-125v194q-17 -32 -31 -52q-55 -73 -136 -111q-77 -37 -179 -40q-96 -3 -183 33q-89 37 -148 107q-103 123 -101 310v582h125v-582q0 -70 19 -128q21 -64 60 -109q83 -97 228 -100q150 -7 243 88q47 47 74 113q23 63 28 136q0 4 0.5 11t0.5 11v560z
" />
    <glyph glyph-name="v" unicode="v" horiz-adv-x="974" 
d="M823 1028h133l-388 -1024h-162l-388 1024h133l336 -887z" />
    <glyph glyph-name="w" unicode="w" horiz-adv-x="1568" 
d="M1418 1027h136l-470 -1023h-107l-193 445l-193 -445h-107l-470 1023h136l388 -844l178 388l-209 456h135l142 -333l142 333h135l-209 -456l178 -388z" />
    <glyph glyph-name="x" unicode="x" horiz-adv-x="966" 
d="M558 515l385 -511h-152l-308 410l-309 -410h-151l384 511l-384 512h151l309 -411l308 411h152z" />
    <glyph glyph-name="y" unicode="y" horiz-adv-x="1079" 
d="M929 1027h135v-1l-660 -1432h-135l202 440l-457 993h136l381 -864z" />
    <glyph glyph-name="y" unicode="&#xff;" horiz-adv-x="1079" 
d="M929 1027h135v-1l-660 -1432h-135l202 440l-457 993h136l381 -864z" />
    <glyph glyph-name="y" unicode="&#xfd;" horiz-adv-x="1079" 
d="M929 1027h135v-1l-660 -1432h-135l202 440l-457 993h136l381 -864z" />
    <glyph glyph-name="z" unicode="z" horiz-adv-x="966" 
d="M213 118h717v-114h-895v90l691 820h-654v114h821v-102z" />
    <glyph glyph-name="braceleft" unicode="{" horiz-adv-x="499" 
d="M490 1559q-65 -26 -91 -79q-23 -47 -21 -131l3 -157q1 -78 0 -156l-2 -79q0 -44 -12 -89q-12 -47 -43 -88q-31 -42 -78 -68l-1 -1l1 -1q47 -26 78 -68t43 -87t12 -90l2 -78q2 -79 0 -157l-3 -157q-2 -83 21 -130q27 -55 91 -80q61 -23 149 -26v-91q-115 -2 -190 24
q-52 18 -90 49q-43 35 -65 78q-38 71 -40 176l-2 157q-2 78 0 157l1 78q2 42 -3 66q-12 66 -62 102q-47 36 -135 44v68q88 8 135 44q50 36 62 102q5 24 3 66l-1 78q-2 78 0 157l2 157q2 105 40 176q22 43 65 78q38 31 90 49q75 26 190 24v-91q-88 -3 -149 -26z" />
    <glyph glyph-name="braceright" unicode="}" horiz-adv-x="499" 
d="M309 789q44 -34 136 -44v-68q-87 -8 -136 -45q-49 -36 -61 -101q-5 -29 -4 -66l2 -79q2 -78 0 -156l-2 -157q-2 -105 -40 -176q-22 -43 -65 -78q-40 -32 -91 -50q-72 -25 -189 -23v91q91 3 149 25q63 25 90 80q24 49 22 131l-3 157q-1 78 0 156l2 79q0 44 12 89
q13 49 42 88q31 42 78 68l2 1l-2 1q-47 26 -78 68q-29 40 -42 87q-12 45 -12 90l-2 78q-2 79 0 157l3 157q2 81 -22 130q-27 55 -90 80q-61 23 -149 26v91q114 2 189 -24q53 -18 91 -49q43 -35 65 -78q38 -71 40 -176l2 -157q2 -79 0 -157l-2 -78q-1 -37 4 -66
q13 -66 61 -102z" />
    <glyph glyph-name="asciitilde" unicode="~" horiz-adv-x="1165" 
d="M997 636l123 -20q-19 -95 -70.5 -161.5t-127.5 -92.5q-46 -16 -95 -16q-133 0 -283 106q-156 110 -256 75q-44 -16 -75.5 -60t-44.5 -109l-123 20q19 95 70.5 162t127.5 93q165 59 378 -91q155 -109 256 -74q44 16 75.5 60t44.5 108z" />
    <glyph glyph-name="nonbreakingspace" unicode="&#xa0;" horiz-adv-x="712" 
 />
    <glyph glyph-name="cent" unicode="&#xa2;" horiz-adv-x="1159" 
d="M634 68q103 0 194.5 43t153.5 121l101 -67q-79 -99 -198 -154.5t-251 -55.5h-2q-108 0 -207 37l-146 -321h-130l170 373q-113 72 -179.5 185.5t-65.5 245.5q0 141 75.5 260.5t204.5 189t280 69.5h1q50 0 112 -12l134 295h130l-150 -329q140 -58 226 -169l-102 -66
q-67 86 -172 130l-339 -745q82 -30 159 -30h1zM369 154l329 721q-35 5 -63 5h-1q-179 0 -306.5 -119t-128.5 -286q0 -96 45.5 -180t124.5 -141z" />
    <glyph glyph-name="sterling" unicode="&#xa3;" horiz-adv-x="1280" 
d="M394 108h824v-114h-1088v114q89 0 152.5 57.5t63.5 139.5v346h-291v114h291v205q0 218 115 341q119 127 317 127q156 0 272 -90q115 -88 162 -250l-121 -29q-38 128 -121 192q-82 63 -192 63q-140 0 -222 -87q-85 -89 -85 -267v-205h425v-114h-425v-346q0 -110 -77 -197z
" />
    <glyph glyph-name="yen" unicode="&#xa5;" horiz-adv-x="1171" 
d="M1093 1428l-447 -660h421v-114h-419v-241h419v-114h-419v-305h-125v305h-419v114h419v241h-419v114h421l-447 660h147l361 -533l360 533h147z" />
    <glyph glyph-name="copyright" unicode="&#xa9;" horiz-adv-x="1644" 
d="M828 979q-110 0 -189 -79t-79 -189t79 -189t189 -79t189 79l81 -81q-111 -111 -270 -111t-270 111t-111 270t111 270q112 112 270 112t270 -112l-81 -81q-79 79 -189 79zM822 1451q150 0 287 -58.5t236 -158t157.5 -236.5t58.5 -287t-58.5 -287t-157.5 -236.5t-236 -158
t-287 -58.5t-287 58.5t-236.5 158t-158 236.5t-58.5 287t58.5 287t158 236.5t236.5 158t287 58.5zM822 85q127 0 243 49.5t199.5 133.5t133 200t49.5 243t-49.5 243t-133 200t-199.5 133.5t-243 49.5q-170 0 -314 -84t-228 -228t-84 -314t84 -314t228 -228t314 -84z" />
    <glyph glyph-name="softhyphen" unicode="&#xad;" horiz-adv-x="0" 
 />
    <glyph glyph-name="registered" unicode="&#xae;" horiz-adv-x="1644" 
d="M945 643q-9 -3 -27 -7l221 -335h-137l-214 326h-91v-326h-114v804h256q59 0 106 -16q50 -17 86 -48t57 -78q19 -42 19 -97t-19 -97q-19 -43 -57 -77q-38 -33 -86 -49zM839 741q41 0 70 10q26 8 47 26q19 17 27 38q10 21 10 51q0 31 -10 52q-9 22 -27 37q-21 18 -47 26
q-29 10 -70 10h-142v-250h142zM822 1451q150 0 287 -58.5t236 -158t157.5 -236.5t58.5 -287t-58.5 -287t-157.5 -236.5t-236 -158t-287 -58.5t-287 58.5t-236.5 158t-158 236.5t-58.5 287t58.5 287t158 236.5t236.5 158t287 58.5zM822 85q127 0 243 49.5t199.5 133.5
t133 200t49.5 243t-49.5 243t-133 200t-199.5 133.5t-243 49.5q-170 0 -314 -84t-228 -228t-84 -314t84 -314t228 -228t314 -84z" />
    <glyph glyph-name="multiply" unicode="&#xd7;" horiz-adv-x="868" 
d="M809 920l-294 -294l294 -294l-81 -81l-294 294l-294 -294l-81 81l295 294l-295 294l81 81l294 -295l294 295z" />
    <glyph glyph-name="divide" unicode="&#xf7;" horiz-adv-x="899" 
d="M871 569h-844v114h844v-114zM449 395q41 0 69 -28.5t28 -68.5t-28 -68.5t-69 -28.5t-69 28.5t-28 68.5t28 68.5t69 28.5zM449 856q-40 0 -68.5 28.5t-28.5 69.5q0 40 28 68.5t69 28.5t69 -28.5t28 -68.5q0 -41 -28.5 -69.5t-68.5 -28.5z" />
    <glyph glyph-name="quoteleft" unicode="&#x2018;" horiz-adv-x="376" 
d="M230 1430h85l-134 -602h-126z" />
    <glyph glyph-name="quoteright" unicode="&#x2019;" horiz-adv-x="376" 
d="M194 1430h126l-175 -602h-86z" />
    <glyph glyph-name="quotedblleft" unicode="&#x201c;" horiz-adv-x="788" 
d="M53 828l175 602h85l-134 -602h-126zM643 1430h86l-134 -602h-127z" />
    <glyph glyph-name="quotedblright" unicode="&#x201d;" horiz-adv-x="776" 
d="M59 828l134 602h127l-175 -602h-86zM596 1430h127l-175 -602h-86z" />
    <glyph glyph-name="Euro" unicode="&#x20ac;" horiz-adv-x="1449" 
d="M618 268q145 -132 346.5 -170t392.5 30l46 -106q-145 -51 -298 -51q-160 0 -310 56t-265 161q-136 124 -196 288h-266v114h235q-21 121 0 242h-235v113h266q61 166 196 289q172 156 409.5 200.5t463.5 -35.5l-46 -105q-191 68 -392.5 30t-346.5 -170q-96 -86 -151 -209
h517v-113h-554q-26 -121 0 -242h554v-114h-517q54 -121 151 -208z" />
    <glyph glyph-name="trademark" unicode="&#x2122;" horiz-adv-x="1382" 
d="M43 1327v101h517v-101h-203v-533h-111v533h-203zM1210 1428h91v-634h-111v416l-193 -276l-194 276v-416h-111v634h91l214 -305z" />
    </font>
</defs>
</svg>
